{
	"asset":{
		"generator":"Khronos glTF Blender I/O v3.5.30",
		"version":"2.0"
	},
	"extensionsUsed":[
		"KHR_materials_specular",
		"KHR_materials_ior"
	],
	"scene":0,
	"scenes":[
		{
			"name":"Scene",
			"nodes":[
				0
			]
		}
	],
	"nodes":[
		{
			"mesh":0,
			"name":"Cerberus",
			"rotation":[
				0.7071068286895752,
				0,
				0,
				0.7071068286895752
			]
		}
	],
	"materials":[
		{
			"doubleSided":true,
			"extensions":{
				"KHR_materials_specular":{
					"specularColorFactor":[
						0,
						0,
						0
					]
				},
				"KHR_materials_ior":{
					"ior":1.4500000476837158
				}
			},
			"name":"Mat_CerberusPBR",
			"normalTexture":{
				"index":0
			},
			"pbrMetallicRoughness":{
				"baseColorTexture":{
					"index":1
				},
				"metallicRoughnessTexture":{
					"index":2
				}
			}
		}
	],
	"meshes":[
		{
			"name":"Cerberus",
			"primitives":[
				{
					"attributes":{
						"POSITION":0,
						"TEXCOORD_0":1,
						"NORMAL":2
					},
					"indices":3,
					"material":0
				}
			]
		}
	],
	"textures":[
		{
			"sampler":0,
			"source":0
		},
		{
			"sampler":0,
			"source":1
		},
		{
			"sampler":0,
			"source":2
		}
	],
	"images":[
		{
			"mimeType":"image/png",
			"name":"Cerberus_N",
			"uri":"Cerberus_N.png"
		},
		{
			"mimeType":"image/png",
			"name":"Cerberus_A",
			"uri":"Cerberus_A.png"
		},
		{
			"mimeType":"image/png",
			"name":"Cerberus_M-Cerberus_R",
			"uri":"Cerberus_M-Cerberus_R.png"
		}
	],
	"accessors":[
		{
			"bufferView":0,
			"componentType":5126,
			"count":26841,
			"max":[
				0.1252029985189438,
				0.3654879927635193,
				0.47208699584007263
			],
			"min":[
				-0.19993099570274353,
				-1.1955729722976685,
				-0.1877879947423935
			],
			"type":"VEC3"
		},
		{
			"bufferView":1,
			"componentType":5126,
			"count":26841,
			"type":"VEC2"
		},
		{
			"bufferView":2,
			"componentType":5126,
			"count":26841,
			"type":"VEC3"
		},
		{
			"bufferView":3,
			"componentType":5123,
			"count":100623,
			"type":"SCALAR"
		}
	],
	"bufferViews":[
		{
			"buffer":0,
			"byteLength":322092,
			"byteOffset":0,
			"target":34962
		},
		{
			"buffer":0,
			"byteLength":214728,
			"byteOffset":322092,
			"target":34962
		},
		{
			"buffer":0,
			"byteLength":322092,
			"byteOffset":536820,
			"target":34962
		},
		{
			"buffer":0,
			"byteLength":201246,
			"byteOffset":858912,
			"target":34963
		}
	],
	"samplers":[
		{
			"magFilter":9729,
			"minFilter":9987
		}
	],
	"buffers":[
		{
			"byteLength":1060160,
			"uri":"Cerberus.bin"
		}
	]
}
