<svg version="1.2" xmlns="http://www.w3.org/2000/svg" viewBox="0 0 100 100" width="100" height="100">
	<title>cross-svg</title>
	<style>
		.s0 { fill: #c0c0c0 } 
	</style>
	<path id="Shape 1" class="s0" d="m41.7 51.3l-17.1-17.7c0 0-1.3-1.5 0-2.8 1.2-1.3 5.5-5.5 5.5-5.5 0 0 0.9-1.8 2.8 0 1.8 1.7 17.3 17.3 17.3 17.3l16.9-17.8c0 0 0.7-1.7 2.7-0.2 1.8 1.5 6.6 6.6 6.6 6.6 0 0 1.4 0.6-1 3.2-2.5 2.6-16.6 16.9-16.6 16.9l17 16.2c0 0 1.8 0.9 0 2.8-1.8 1.8-6.1 6.1-6.1 6.1 0 0-1.1 1.3-2.9-0.6-1.9-1.8-16.4-16.4-16.4-16.4l-16.4 16.5c0 0-2 2-3.9-0.1-1.9-2.1-5.2-5.9-5.2-5.9 0 0-0.8-1.4 0-2.4 0.8-1 16.8-16.2 16.8-16.2z"/>
</svg>