{
	"asset":{
		"generator":"Khronos glTF Blender I/O v3.5.30",
		"version":"2.0"
	},
	"scene":0,
	"scenes":[
		{
			"name":"Scene",
			"nodes":[
				0,
				1
			]
		}
	],
	"nodes":[
		{
			"mesh":0,
			"name":"objdefault",
			"rotation":[
				0.7071069478988647,
				0,
				0,
				0.7071066498756409
			],
			"scale":[
				0.2123420238494873,
				0.2123420089483261,
				0.2123420089483261
			],
			"translation":[
				0.0028870105743408203,
				-0.778523862361908,
				0.38026541471481323
			]
		},
		{
			"mesh":1,
			"name":"Sphere03.001",
			"rotation":[
				0.70710688829422,
				0,
				0,
				0.7071066498756409
			],
			"scale":[
				0.2829924523830414,
				0.282992422580719,
				0.282992422580719
			],
			"translation":[
				-0.7385644912719727,
				-0.6080560088157654,
				0.8354034423828125
			]
		}
	],
	"materials":[
		{
			"doubleSided":true,
			"name":"m0_01___Default.003",
			"pbrMetallicRoughness":{
				"baseColorFactor":[
					0.6901959776878357,
					0,
					0,
					1
				],
				"metallicFactor":0,
				"roughnessFactor":0.5
			}
		},
		{
			"doubleSided":true,
			"name":"m1_03___Default",
			"pbrMetallicRoughness":{
				"baseColorFactor":[
					0.1333329975605011,
					0.1333329975605011,
					0.1333329975605011,
					1
				],
				"metallicFactor":0,
				"roughnessFactor":0.5
			}
		}
	],
	"meshes":[
		{
			"name":"objdefault",
			"primitives":[
				{
					"attributes":{
						"POSITION":0,
						"NORMAL":1
					},
					"indices":2,
					"material":0
				}
			]
		},
		{
			"name":"Sphere03.001",
			"primitives":[
				{
					"attributes":{
						"POSITION":3,
						"TEXCOORD_0":4,
						"NORMAL":5
					},
					"indices":6,
					"material":1
				}
			]
		}
	],
	"accessors":[
		{
			"bufferView":0,
			"componentType":5126,
			"count":50000,
			"max":[
				7.0467000007629395,
				3.1512999534606934,
				0
			],
			"min":[
				-7.0467000007629395,
				-3.1512999534606934,
				-9.939899444580078
			],
			"type":"VEC3"
		},
		{
			"bufferView":1,
			"componentType":5126,
			"count":50000,
			"type":"VEC3"
		},
		{
			"bufferView":2,
			"componentType":5123,
			"count":300000,
			"type":"SCALAR"
		},
		{
			"bufferView":3,
			"componentType":5126,
			"count":559,
			"max":[
				0.6923909783363342,
				0.6923909783363342,
				0.6923909783363342
			],
			"min":[
				-0.6923909783363342,
				-0.6923909783363342,
				-0.6923909783363342
			],
			"type":"VEC3"
		},
		{
			"bufferView":4,
			"componentType":5126,
			"count":559,
			"type":"VEC2"
		},
		{
			"bufferView":5,
			"componentType":5126,
			"count":559,
			"type":"VEC3"
		},
		{
			"bufferView":6,
			"componentType":5123,
			"count":2880,
			"type":"SCALAR"
		}
	],
	"bufferViews":[
		{
			"buffer":0,
			"byteLength":600000,
			"byteOffset":0,
			"target":34962
		},
		{
			"buffer":0,
			"byteLength":600000,
			"byteOffset":600000,
			"target":34962
		},
		{
			"buffer":0,
			"byteLength":600000,
			"byteOffset":1200000,
			"target":34963
		},
		{
			"buffer":0,
			"byteLength":6708,
			"byteOffset":1800000,
			"target":34962
		},
		{
			"buffer":0,
			"byteLength":4472,
			"byteOffset":1806708,
			"target":34962
		},
		{
			"buffer":0,
			"byteLength":6708,
			"byteOffset":1811180,
			"target":34962
		},
		{
			"buffer":0,
			"byteLength":5760,
			"byteOffset":1817888,
			"target":34963
		}
	],
	"buffers":[
		{
			"byteLength":1823648,
			"uri":"chinesedragon.bin"
		}
	]
}
