{
    "asset" : {
        "generator" : "Khronos glTF Blender I/O v1.7.33",
        "version" : "2.0"
    },
    "scene" : 0,
    "scenes" : [
        {
            "name" : "Scene",
            "nodes" : [
                2,
                3,
                4,
                5,
                6,
                7,
                8,
                9,
                10
            ]
        }
    ],
    "nodes" : [
        {
            "name" : "Mesh"
        },
        {
            "name" : "Texture Group"
        },
        {
            "children" : [
                0,
                1
            ],
            "name" : "RootNode"
        },
        {
            "mesh" : 0,
            "name" : "area_light",
            "rotation" : [
                0.7071068286895752,
                0,
                0,
                0.7071067094802856
            ]
        },
        {
            "mesh" : 1,
            "name" : "back_wall",
            "rotation" : [
                0.7071068286895752,
                0,
                0,
                0.7071067094802856
            ]
        },
        {
            "mesh" : 2,
            "name" : "ceiling",
            "rotation" : [
                0.7071068286895752,
                0,
                0,
                0.7071067094802856
            ]
        },
        {
            "mesh" : 3,
            "name" : "floor",
            "rotation" : [
                0.7071068286895752,
                0,
                0,
                0.7071067094802856
            ]
        },
        {
            "mesh" : 4,
            "name" : "left_wall",
            "rotation" : [
                0.7071068286895752,
                0,
                0,
                0.7071067094802856
            ]
        },
        {
            "mesh" : 5,
            "name" : "right_wall",
            "rotation" : [
                0.7071068286895752,
                0,
                0,
                0.7071067094802856
            ]
        },
        {
            "mesh" : 6,
            "name" : "short_box",
            "rotation" : [
                0.7071068286895752,
                0,
                0,
                0.7071067094802856
            ]
        },
        {
            "mesh" : 7,
            "name" : "tall_box",
            "rotation" : [
                0.7071068286895752,
                0,
                0,
                0.7071067094802856
            ]
        }
    ],
    "materials" : [
        {
            "doubleSided" : true,
            "name" : "Light.002",
            "pbrMetallicRoughness" : {
                "metallicFactor" : 0
            }
        },
        {
            "doubleSided" : true,
            "name" : "Khaki.002",
            "pbrMetallicRoughness" : {
                "baseColorFactor" : [
                    0,
                    0.00878001470118761,
                    0.8000000715255737,
                    1
                ],
                "metallicFactor" : 0,
                "roughnessFactor" : 0.6732679605484009
            }
        },
        {
            "doubleSided" : true,
            "name" : "BloodyRed.002",
            "pbrMetallicRoughness" : {
                "baseColorFactor" : [
                    0.4449999928474426,
                    0,
                    0,
                    1
                ],
                "metallicFactor" : 0,
                "roughnessFactor" : 0.6732679605484009
            }
        },
        {
            "doubleSided" : true,
            "name" : "DarkGreen.002",
            "pbrMetallicRoughness" : {
                "baseColorFactor" : [
                    0,
                    0.3199999928474426,
                    0,
                    1
                ],
                "metallicFactor" : 0,
                "roughnessFactor" : 0.6732679605484009
            }
        }
    ],
    "meshes" : [
        {
            "name" : "area_light.003",
            "primitives" : [
                {
                    "attributes" : {
                        "POSITION" : 0,
                        "NORMAL" : 1,
                        "TEXCOORD_0" : 2,
                        "COLOR_0" : 3
                    },
                    "indices" : 4,
                    "material" : 0
                }
            ]
        },
        {
            "name" : "back_wall.002",
            "primitives" : [
                {
                    "attributes" : {
                        "POSITION" : 5,
                        "NORMAL" : 6,
                        "TEXCOORD_0" : 7,
                        "COLOR_0" : 8
                    },
                    "indices" : 9,
                    "material" : 1
                }
            ]
        },
        {
            "name" : "ceiling.002",
            "primitives" : [
                {
                    "attributes" : {
                        "POSITION" : 10,
                        "NORMAL" : 11
                    },
                    "indices" : 9,
                    "material" : 1
                }
            ]
        },
        {
            "name" : "floor.002",
            "primitives" : [
                {
                    "attributes" : {
                        "POSITION" : 12,
                        "NORMAL" : 13,
                        "TEXCOORD_0" : 14,
                        "COLOR_0" : 15
                    },
                    "indices" : 9,
                    "material" : 1
                }
            ]
        },
        {
            "name" : "left_wall.002",
            "primitives" : [
                {
                    "attributes" : {
                        "POSITION" : 16,
                        "NORMAL" : 17,
                        "TEXCOORD_0" : 18,
                        "COLOR_0" : 19
                    },
                    "indices" : 20,
                    "material" : 2
                }
            ]
        },
        {
            "name" : "right_wall.002",
            "primitives" : [
                {
                    "attributes" : {
                        "POSITION" : 21,
                        "NORMAL" : 22,
                        "TEXCOORD_0" : 23,
                        "COLOR_0" : 24
                    },
                    "indices" : 4,
                    "material" : 3
                }
            ]
        },
        {
            "name" : "short_box.002",
            "primitives" : [
                {
                    "attributes" : {
                        "POSITION" : 25,
                        "NORMAL" : 26,
                        "TEXCOORD_0" : 27,
                        "COLOR_0" : 28
                    },
                    "indices" : 29,
                    "material" : 1
                }
            ]
        },
        {
            "name" : "tall_box.002",
            "primitives" : [
                {
                    "attributes" : {
                        "POSITION" : 30,
                        "NORMAL" : 31,
                        "TEXCOORD_0" : 32,
                        "COLOR_0" : 33
                    },
                    "indices" : 34,
                    "material" : 1
                }
            ]
        }
    ],
    "accessors" : [
        {
            "bufferView" : 0,
            "componentType" : 5126,
            "count" : 6,
            "max" : [
                0.4159890115261078,
                -2.517967939376831,
                -5.318497180938721
            ],
            "min" : [
                -0.8840109705924988,
                -3.5679678916931152,
                -5.319334030151367
            ],
            "type" : "VEC3"
        },
        {
            "bufferView" : 1,
            "componentType" : 5126,
            "count" : 6,
            "type" : "VEC3"
        },
        {
            "bufferView" : 2,
            "componentType" : 5126,
            "count" : 6,
            "type" : "VEC2"
        },
        {
            "bufferView" : 3,
            "componentType" : 5123,
            "count" : 6,
            "normalized" : true,
            "type" : "VEC4"
        },
        {
            "bufferView" : 4,
            "componentType" : 5123,
            "count" : 6,
            "type" : "SCALAR"
        },
        {
            "bufferView" : 5,
            "componentType" : 5126,
            "count" : 6,
            "max" : [
                2.5459890365600586,
                -5.835597991943359,
                0.16268600523471832
            ],
            "min" : [
                -3.0140109062194824,
                -5.839966773986816,
                -5.325313091278076
            ],
            "type" : "VEC3"
        },
        {
            "bufferView" : 6,
            "componentType" : 5126,
            "count" : 6,
            "type" : "VEC3"
        },
        {
            "bufferView" : 7,
            "componentType" : 5126,
            "count" : 6,
            "type" : "VEC2"
        },
        {
            "bufferView" : 8,
            "componentType" : 5123,
            "count" : 6,
            "normalized" : true,
            "type" : "VEC4"
        },
        {
            "bufferView" : 9,
            "componentType" : 5123,
            "count" : 6,
            "type" : "SCALAR"
        },
        {
            "bufferView" : 10,
            "componentType" : 5126,
            "count" : 6,
            "max" : [
                2.5459890365600586,
                -0.24796900153160095,
                -5.325313091278076
            ],
            "min" : [
                -3.0140109062194824,
                -5.839968204498291,
                -5.3297648429870605
            ],
            "type" : "VEC3"
        },
        {
            "bufferView" : 11,
            "componentType" : 5126,
            "count" : 6,
            "type" : "VEC3"
        },
        {
            "bufferView" : 12,
            "componentType" : 5126,
            "count" : 6,
            "max" : [
                2.5459890365600586,
                -0.24359899759292603,
                0.16268600523471832
            ],
            "min" : [
                -2.982011079788208,
                -5.835597991943359,
                0.15823300182819366
            ],
            "type" : "VEC3"
        },
        {
            "bufferView" : 13,
            "componentType" : 5126,
            "count" : 6,
            "type" : "VEC3"
        },
        {
            "bufferView" : 14,
            "componentType" : 5126,
            "count" : 6,
            "type" : "VEC2"
        },
        {
            "bufferView" : 15,
            "componentType" : 5123,
            "count" : 6,
            "normalized" : true,
            "type" : "VEC4"
        },
        {
            "bufferView" : 16,
            "componentType" : 5126,
            "count" : 5,
            "max" : [
                -2.9500110149383545,
                -0.24359899759292603,
                0.16268600523471832
            ],
            "min" : [
                -3.0140109062194824,
                -5.839968204498291,
                -5.3297648429870605
            ],
            "type" : "VEC3"
        },
        {
            "bufferView" : 17,
            "componentType" : 5126,
            "count" : 5,
            "type" : "VEC3"
        },
        {
            "bufferView" : 18,
            "componentType" : 5126,
            "count" : 5,
            "type" : "VEC2"
        },
        {
            "bufferView" : 19,
            "componentType" : 5123,
            "count" : 5,
            "normalized" : true,
            "type" : "VEC4"
        },
        {
            "bufferView" : 20,
            "componentType" : 5123,
            "count" : 6,
            "type" : "SCALAR"
        },
        {
            "bufferView" : 21,
            "componentType" : 5126,
            "count" : 6,
            "max" : [
                2.5459890365600586,
                -0.24359899759292603,
                0.16268600523471832
            ],
            "min" : [
                2.5459890365600586,
                -5.839968204498291,
                -5.3297648429870605
            ],
            "type" : "VEC3"
        },
        {
            "bufferView" : 22,
            "componentType" : 5126,
            "count" : 6,
            "type" : "VEC3"
        },
        {
            "bufferView" : 23,
            "componentType" : 5126,
            "count" : 6,
            "type" : "VEC2"
        },
        {
            "bufferView" : 24,
            "componentType" : 5123,
            "count" : 6,
            "normalized" : true,
            "type" : "VEC4"
        },
        {
            "bufferView" : 25,
            "componentType" : 5126,
            "count" : 28,
            "max" : [
                1.7259889841079712,
                -0.8935989737510681,
                0.16039900481700897
            ],
            "min" : [
                -0.35401099920272827,
                -2.964911937713623,
                -1.4912489652633667
            ],
            "type" : "VEC3"
        },
        {
            "bufferView" : 26,
            "componentType" : 5126,
            "count" : 28,
            "type" : "VEC3"
        },
        {
            "bufferView" : 27,
            "componentType" : 5126,
            "count" : 28,
            "type" : "VEC2"
        },
        {
            "bufferView" : 28,
            "componentType" : 5123,
            "count" : 28,
            "normalized" : true,
            "type" : "VEC4"
        },
        {
            "bufferView" : 29,
            "componentType" : 5123,
            "count" : 30,
            "type" : "SCALAR"
        },
        {
            "bufferView" : 30,
            "componentType" : 5126,
            "count" : 29,
            "max" : [
                -0.10401099920272827,
                -2.7135980129241943,
                0.1618639975786209
            ],
            "min" : [
                -2.174010992050171,
                -4.806225776672363,
                -3.139799118041992
            ],
            "type" : "VEC3"
        },
        {
            "bufferView" : 31,
            "componentType" : 5126,
            "count" : 29,
            "type" : "VEC3"
        },
        {
            "bufferView" : 32,
            "componentType" : 5126,
            "count" : 29,
            "type" : "VEC2"
        },
        {
            "bufferView" : 33,
            "componentType" : 5123,
            "count" : 29,
            "normalized" : true,
            "type" : "VEC4"
        },
        {
            "bufferView" : 34,
            "componentType" : 5123,
            "count" : 30,
            "type" : "SCALAR"
        }
    ],
    "bufferViews" : [
        {
            "buffer" : 0,
            "byteLength" : 72,
            "byteOffset" : 0
        },
        {
            "buffer" : 0,
            "byteLength" : 72,
            "byteOffset" : 72
        },
        {
            "buffer" : 0,
            "byteLength" : 48,
            "byteOffset" : 144
        },
        {
            "buffer" : 0,
            "byteLength" : 48,
            "byteOffset" : 192
        },
        {
            "buffer" : 0,
            "byteLength" : 12,
            "byteOffset" : 240
        },
        {
            "buffer" : 0,
            "byteLength" : 72,
            "byteOffset" : 252
        },
        {
            "buffer" : 0,
            "byteLength" : 72,
            "byteOffset" : 324
        },
        {
            "buffer" : 0,
            "byteLength" : 48,
            "byteOffset" : 396
        },
        {
            "buffer" : 0,
            "byteLength" : 48,
            "byteOffset" : 444
        },
        {
            "buffer" : 0,
            "byteLength" : 12,
            "byteOffset" : 492
        },
        {
            "buffer" : 0,
            "byteLength" : 72,
            "byteOffset" : 504
        },
        {
            "buffer" : 0,
            "byteLength" : 72,
            "byteOffset" : 576
        },
        {
            "buffer" : 0,
            "byteLength" : 72,
            "byteOffset" : 648
        },
        {
            "buffer" : 0,
            "byteLength" : 72,
            "byteOffset" : 720
        },
        {
            "buffer" : 0,
            "byteLength" : 48,
            "byteOffset" : 792
        },
        {
            "buffer" : 0,
            "byteLength" : 48,
            "byteOffset" : 840
        },
        {
            "buffer" : 0,
            "byteLength" : 60,
            "byteOffset" : 888
        },
        {
            "buffer" : 0,
            "byteLength" : 60,
            "byteOffset" : 948
        },
        {
            "buffer" : 0,
            "byteLength" : 40,
            "byteOffset" : 1008
        },
        {
            "buffer" : 0,
            "byteLength" : 40,
            "byteOffset" : 1048
        },
        {
            "buffer" : 0,
            "byteLength" : 12,
            "byteOffset" : 1088
        },
        {
            "buffer" : 0,
            "byteLength" : 72,
            "byteOffset" : 1100
        },
        {
            "buffer" : 0,
            "byteLength" : 72,
            "byteOffset" : 1172
        },
        {
            "buffer" : 0,
            "byteLength" : 48,
            "byteOffset" : 1244
        },
        {
            "buffer" : 0,
            "byteLength" : 48,
            "byteOffset" : 1292
        },
        {
            "buffer" : 0,
            "byteLength" : 336,
            "byteOffset" : 1340
        },
        {
            "buffer" : 0,
            "byteLength" : 336,
            "byteOffset" : 1676
        },
        {
            "buffer" : 0,
            "byteLength" : 224,
            "byteOffset" : 2012
        },
        {
            "buffer" : 0,
            "byteLength" : 224,
            "byteOffset" : 2236
        },
        {
            "buffer" : 0,
            "byteLength" : 60,
            "byteOffset" : 2460
        },
        {
            "buffer" : 0,
            "byteLength" : 348,
            "byteOffset" : 2520
        },
        {
            "buffer" : 0,
            "byteLength" : 348,
            "byteOffset" : 2868
        },
        {
            "buffer" : 0,
            "byteLength" : 232,
            "byteOffset" : 3216
        },
        {
            "buffer" : 0,
            "byteLength" : 232,
            "byteOffset" : 3448
        },
        {
            "buffer" : 0,
            "byteLength" : 60,
            "byteOffset" : 3680
        }
    ],
    "buffers" : [
        {
            "byteLength" : 3740,
            "uri" : "data:application/octet-stream;base64,"
        }
    ]
}
