<?xml version="1.0" encoding="UTF-8" standalone="no"?>
<!DOCTYPE svg PUBLIC "-//W3C//DTD SVG 1.1//EN"
 "http://www.w3.org/Graphics/SVG/1.1/DTD/svg11.dtd">
<!-- Generated by graphviz version 9.0.0 (20230911.1827)
 -->
<!-- Title: FrameGraph Pages: 1 -->
<svg width="1736pt" height="694pt"
 viewBox="0.00 0.00 1736.00 693.62" xmlns="http://www.w3.org/2000/svg" xmlns:xlink="http://www.w3.org/1999/xlink">
<g id="graph0" class="graph" transform="scale(1 1) rotate(0) translate(4 689.62)">
<title>FrameGraph</title>
<polygon fill="white" stroke="none" points="-4,4 -4,-689.62 1732,-689.62 1732,4 -4,4"/>
<g id="clust21" class="cluster">
<title>cluster_0</title>
</g>
<g id="clust23" class="cluster">
<title>cluster_2</title>
</g>
<g id="clust25" class="cluster">
<title>cluster_4</title>
</g>
<g id="clust24" class="cluster">
<title>cluster_3</title>
</g>
<g id="clust26" class="cluster">
<title>cluster_5</title>
</g>
<g id="clust22" class="cluster">
<title>cluster_1</title>
</g>
<g id="clust27" class="cluster">
<title>cluster_imported_resources</title>
<polygon fill="none" stroke="black" stroke-dasharray="1,5" points="234,-521.84 234,-615.98 1111,-615.98 1111,-521.84 234,-521.84"/>
<text text-anchor="start" x="637.62" y="-599.68" font-family="Helvetica,sans-Serif" font-size="14.00"> </text>
<text text-anchor="start" x="641.38" y="-599.68" font-family="Helvetica,sans-Serif" font-weight="bold" font-size="14.00">Imported</text>
<text text-anchor="start" x="703.62" y="-599.68" font-family="Helvetica,sans-Serif" font-size="14.00"> </text>
</g>
<!-- P0 -->
<g id="node1" class="node">
<title>P0</title>
<path fill="orange" stroke="black" d="M28.35,-624.48C28.35,-624.48 205.65,-624.48 205.65,-624.48 211.65,-624.48 217.65,-630.48 217.65,-636.48 217.65,-636.48 217.65,-657.12 217.65,-657.12 217.65,-663.12 211.65,-669.12 205.65,-669.12 205.65,-669.12 28.35,-669.12 28.35,-669.12 22.35,-669.12 16.35,-663.12 16.35,-657.12 16.35,-657.12 16.35,-636.48 16.35,-636.48 16.35,-630.48 22.35,-624.48 28.35,-624.48"/>
<text text-anchor="start" x="30.75" y="-658.46" font-family="Helvetica,sans-Serif" font-weight="bold" font-size="10.00">Pass.Builtin.Code.FrameDataUpload</text>
<polyline fill="none" stroke="black" points="16.35,-652.8 217.65,-652.8"/>
<text text-anchor="start" x="92.25" y="-641.14" font-family="Helvetica,sans-Serif" font-size="10.00">★ Refs: 1</text>
<text text-anchor="start" x="98.25" y="-629.14" font-family="Helvetica,sans-Serif" font-size="10.00"> Index: 0</text>
</g>
<!-- R5_1 -->
<g id="node12" class="node">
<title>R5_1</title>
<polygon fill="skyblue" stroke="black" points="119.72,-530.34 119.72,-582.98 218.28,-582.98 218.28,-530.34 119.72,-530.34"/>
<text text-anchor="start" x="142.75" y="-572.32" font-family="Helvetica,sans-Serif" font-weight="bold" font-size="10.00">FrameData</text>
<text text-anchor="start" x="134.12" y="-562.32" font-family="Helvetica,sans-Serif" font-size="10.00">size : 304 bytes</text>
<polyline fill="none" stroke="black" points="119.72,-558.66 218.28,-558.66"/>
<text text-anchor="start" x="151.62" y="-547" font-family="Helvetica,sans-Serif" font-size="10.00">Index: 5</text>
<text text-anchor="start" x="152" y="-535" font-family="Helvetica,sans-Serif" font-size="10.00">Refs : 2</text>
</g>
<!-- P0&#45;&gt;R5_1 -->
<g id="edge1" class="edge">
<title>P0&#45;&gt;R5_1</title>
<path fill="none" stroke="orangered" d="M129.85,-624.01C135.37,-614.66 141.96,-603.5 148.14,-593.02"/>
<polygon fill="orangered" stroke="orangered" points="151.06,-594.96 153.13,-584.57 145.03,-591.4 151.06,-594.96"/>
</g>
<!-- P1 -->
<g id="node2" class="node">
<title>P1</title>
<path fill="orange" stroke="black" d="M1139.47,-624.48C1139.47,-624.48 1344.53,-624.48 1344.53,-624.48 1350.53,-624.48 1356.53,-630.48 1356.53,-636.48 1356.53,-636.48 1356.53,-657.12 1356.53,-657.12 1356.53,-663.12 1350.53,-669.12 1344.53,-669.12 1344.53,-669.12 1139.47,-669.12 1139.47,-669.12 1133.47,-669.12 1127.47,-663.12 1127.47,-657.12 1127.47,-657.12 1127.47,-636.48 1127.47,-636.48 1127.47,-630.48 1133.47,-624.48 1139.47,-624.48"/>
<text text-anchor="start" x="1141.88" y="-658.46" font-family="Helvetica,sans-Serif" font-weight="bold" font-size="10.00">Pass.Builtin.Code.SceneLightsDataUpload</text>
<polyline fill="none" stroke="black" points="1127.47,-652.8 1356.53,-652.8"/>
<text text-anchor="start" x="1216.88" y="-641.14" font-family="Helvetica,sans-Serif" font-size="10.00">★ Refs: 1</text>
<text text-anchor="start" x="1222.88" y="-629.14" font-family="Helvetica,sans-Serif" font-size="10.00"> Index: 1</text>
</g>
<!-- R6_1 -->
<g id="node13" class="node">
<title>R6_1</title>
<polygon fill="skyblue" stroke="black" points="1157.47,-530.34 1157.47,-582.98 1266.53,-582.98 1266.53,-530.34 1157.47,-530.34"/>
<text text-anchor="start" x="1171.88" y="-572.32" font-family="Helvetica,sans-Serif" font-weight="bold" font-size="10.00">SceneLightsData</text>
<text text-anchor="start" x="1171.88" y="-562.32" font-family="Helvetica,sans-Serif" font-size="10.00">size : 10256 bytes</text>
<polyline fill="none" stroke="black" points="1157.47,-558.66 1266.53,-558.66"/>
<text text-anchor="start" x="1194.38" y="-547" font-family="Helvetica,sans-Serif" font-size="10.00">Index: 6</text>
<text text-anchor="start" x="1194.75" y="-535" font-family="Helvetica,sans-Serif" font-size="10.00">Refs : 1</text>
</g>
<!-- P1&#45;&gt;R6_1 -->
<g id="edge2" class="edge">
<title>P1&#45;&gt;R6_1</title>
<path fill="none" stroke="orangered" d="M1234.58,-624.01C1231.5,-614.95 1227.84,-604.19 1224.37,-593.99"/>
<polygon fill="orangered" stroke="orangered" points="1227.74,-593.03 1221.2,-584.7 1221.11,-595.29 1227.74,-593.03"/>
</g>
<!-- P2 -->
<g id="node3" class="node">
<title>P2</title>
<path fill="#ee2c2c" stroke="black" d="M1484.35,-624.48C1484.35,-624.48 1625.65,-624.48 1625.65,-624.48 1631.65,-624.48 1637.65,-630.48 1637.65,-636.48 1637.65,-636.48 1637.65,-657.12 1637.65,-657.12 1637.65,-663.12 1631.65,-669.12 1625.65,-669.12 1625.65,-669.12 1484.35,-669.12 1484.35,-669.12 1478.35,-669.12 1472.35,-663.12 1472.35,-657.12 1472.35,-657.12 1472.35,-636.48 1472.35,-636.48 1472.35,-630.48 1478.35,-624.48 1484.35,-624.48"/>
<text text-anchor="start" x="1486.75" y="-658.46" font-family="Helvetica,sans-Serif" font-weight="bold" font-size="10.00">Pass.Builtin.RenderShadows</text>
<polyline fill="none" stroke="black" points="1472.35,-652.8 1637.65,-652.8"/>
<text text-anchor="start" x="1539.62" y="-641.14" font-family="Helvetica,sans-Serif" font-size="10.00">Refs: 2</text>
<text text-anchor="start" x="1536.25" y="-629.14" font-family="Helvetica,sans-Serif" font-size="10.00"> Index: 2</text>
</g>
<!-- R7_1 -->
<g id="node14" class="node">
<title>R7_1</title>
<polygon fill="skyblue" stroke="black" points="1380.72,-530.34 1380.72,-582.98 1581.28,-582.98 1581.28,-530.34 1380.72,-530.34"/>
<text text-anchor="start" x="1451.38" y="-572.32" font-family="Helvetica,sans-Serif" font-weight="bold" font-size="10.00">ShadowMap</text>
<text text-anchor="start" x="1395.12" y="-562.32" font-family="Helvetica,sans-Serif" font-size="10.00">(4096, 4096) &#45; BGRA8_UNORM [Depth]</text>
<polyline fill="none" stroke="black" points="1380.72,-558.66 1581.28,-558.66"/>
<text text-anchor="start" x="1463.62" y="-547" font-family="Helvetica,sans-Serif" font-size="10.00">Index: 7</text>
<text text-anchor="start" x="1464" y="-535" font-family="Helvetica,sans-Serif" font-size="10.00">Refs : 1</text>
</g>
<!-- P2&#45;&gt;R7_1 -->
<g id="edge3" class="edge">
<title>P2&#45;&gt;R7_1</title>
<path fill="none" stroke="orangered" d="M1536.71,-624.01C1528.62,-614.37 1518.9,-602.81 1509.87,-592.05"/>
<polygon fill="orangered" stroke="orangered" points="1512.58,-589.83 1503.47,-584.42 1507.22,-594.33 1512.58,-589.83"/>
</g>
<!-- R8_1 -->
<g id="node15" class="node">
<title>R8_1</title>
<polygon fill="skyblue" stroke="black" points="1599.6,-530.34 1599.6,-582.98 1712.4,-582.98 1712.4,-530.34 1599.6,-530.34"/>
<text text-anchor="start" x="1614" y="-572.32" font-family="Helvetica,sans-Serif" font-weight="bold" font-size="10.00">LightSpaceMatrix</text>
<text text-anchor="start" x="1623.75" y="-562.32" font-family="Helvetica,sans-Serif" font-size="10.00">size : 64 bytes</text>
<polyline fill="none" stroke="black" points="1599.6,-558.66 1712.4,-558.66"/>
<text text-anchor="start" x="1638.5" y="-547" font-family="Helvetica,sans-Serif" font-size="10.00">Index: 8</text>
<text text-anchor="start" x="1638.88" y="-535" font-family="Helvetica,sans-Serif" font-size="10.00">Refs : 1</text>
</g>
<!-- P2&#45;&gt;R8_1 -->
<g id="edge4" class="edge">
<title>P2&#45;&gt;R8_1</title>
<path fill="none" stroke="orangered" d="M1580.66,-624.03C1583.81,-621.33 1586.99,-618.6 1590,-615.98 1599.37,-607.85 1609.44,-599.01 1618.81,-590.73"/>
<polygon fill="orangered" stroke="orangered" points="1620.88,-593.57 1626.05,-584.33 1616.24,-588.33 1620.88,-593.57"/>
</g>
<!-- P3 -->
<g id="node4" class="node">
<title>P3</title>
<path fill="#ee2c2c" stroke="black" d="M646.73,-448.7C646.73,-448.7 769.27,-448.7 769.27,-448.7 775.27,-448.7 781.27,-454.7 781.27,-460.7 781.27,-460.7 781.27,-481.34 781.27,-481.34 781.27,-487.34 775.27,-493.34 769.27,-493.34 769.27,-493.34 646.73,-493.34 646.73,-493.34 640.73,-493.34 634.73,-487.34 634.73,-481.34 634.73,-481.34 634.73,-460.7 634.73,-460.7 634.73,-454.7 640.73,-448.7 646.73,-448.7"/>
<text text-anchor="start" x="649.12" y="-482.68" font-family="Helvetica,sans-Serif" font-weight="bold" font-size="10.00">Pass.Builtin.PBRLighting</text>
<polyline fill="none" stroke="black" points="634.73,-477.02 781.27,-477.02"/>
<text text-anchor="start" x="683.12" y="-465.36" font-family="Helvetica,sans-Serif" font-size="10.00">★ Refs: 2</text>
<text text-anchor="start" x="689.12" y="-453.36" font-family="Helvetica,sans-Serif" font-size="10.00"> Index: 3</text>
</g>
<!-- R9_1 -->
<g id="node16" class="node">
<title>R9_1</title>
<polygon fill="skyblue" stroke="black" points="432.48,-359.06 432.48,-411.7 589.52,-411.7 589.52,-359.06 432.48,-359.06"/>
<text text-anchor="start" x="485.88" y="-401.04" font-family="Helvetica,sans-Serif" font-weight="bold" font-size="10.00">SceneHDR</text>
<text text-anchor="start" x="446.88" y="-391.04" font-family="Helvetica,sans-Serif" font-size="10.00">(4096, 4096) &#45; RGBA32F [2D]</text>
<polyline fill="none" stroke="black" points="432.48,-387.38 589.52,-387.38"/>
<text text-anchor="start" x="493.38" y="-375.72" font-family="Helvetica,sans-Serif" font-size="10.00">Index: 9</text>
<text text-anchor="start" x="493.75" y="-363.72" font-family="Helvetica,sans-Serif" font-size="10.00">Refs : 1</text>
</g>
<!-- P3&#45;&gt;R9_1 -->
<g id="edge5" class="edge">
<title>P3&#45;&gt;R9_1</title>
<path fill="none" stroke="orangered" d="M656.75,-448.26C634.01,-438.61 606.86,-427.08 582.19,-416.61"/>
<polygon fill="orangered" stroke="orangered" points="583.76,-413.47 573.19,-412.78 581.02,-419.91 583.76,-413.47"/>
</g>
<!-- R10_1 -->
<g id="node17" class="node">
<title>R10_1</title>
<polygon fill="skyblue" stroke="black" points="607.73,-359.06 607.73,-411.7 808.27,-411.7 808.27,-359.06 607.73,-359.06"/>
<text text-anchor="start" x="679.12" y="-401.04" font-family="Helvetica,sans-Serif" font-weight="bold" font-size="10.00">SceneDepth</text>
<text text-anchor="start" x="622.12" y="-391.04" font-family="Helvetica,sans-Serif" font-size="10.00">(4096, 4096) &#45; BGRA8_UNORM [Depth]</text>
<polyline fill="none" stroke="black" points="607.73,-387.38 808.27,-387.38"/>
<text text-anchor="start" x="688.12" y="-375.72" font-family="Helvetica,sans-Serif" font-size="10.00">Index: 10</text>
<text text-anchor="start" x="691.12" y="-363.72" font-family="Helvetica,sans-Serif" font-size="10.00">Refs : 1</text>
</g>
<!-- P3&#45;&gt;R10_1 -->
<g id="edge6" class="edge">
<title>P3&#45;&gt;R10_1</title>
<path fill="none" stroke="orangered" d="M708,-448.48C708,-440.83 708,-431.98 708,-423.4"/>
<polygon fill="orangered" stroke="orangered" points="711.5,-423.53 708,-413.53 704.5,-423.53 711.5,-423.53"/>
</g>
<!-- P4 -->
<g id="node5" class="node">
<title>P4</title>
<path fill="orange" stroke="black" d="M450.1,-277.42C450.1,-277.42 571.9,-277.42 571.9,-277.42 577.9,-277.42 583.9,-283.42 583.9,-289.42 583.9,-289.42 583.9,-310.06 583.9,-310.06 583.9,-316.06 577.9,-322.06 571.9,-322.06 571.9,-322.06 450.1,-322.06 450.1,-322.06 444.1,-322.06 438.1,-316.06 438.1,-310.06 438.1,-310.06 438.1,-289.42 438.1,-289.42 438.1,-283.42 444.1,-277.42 450.1,-277.42"/>
<text text-anchor="start" x="452.5" y="-311.4" font-family="Helvetica,sans-Serif" font-weight="bold" font-size="10.00">Pass.Builtin.Code.Debug</text>
<polyline fill="none" stroke="black" points="438.1,-305.74 583.9,-305.74"/>
<text text-anchor="start" x="486" y="-294.08" font-family="Helvetica,sans-Serif" font-size="10.00">★ Refs: 2</text>
<text text-anchor="start" x="492" y="-282.08" font-family="Helvetica,sans-Serif" font-size="10.00"> Index: 4</text>
</g>
<!-- R9_2 -->
<g id="node18" class="node">
<title>R9_2</title>
<polygon fill="skyblue" stroke="black" points="334.48,-187.78 334.48,-240.42 491.52,-240.42 491.52,-187.78 334.48,-187.78"/>
<text text-anchor="start" x="378.88" y="-229.76" font-family="Helvetica,sans-Serif" font-weight="bold" font-size="10.00">SceneHDR</text>
<text text-anchor="start" x="429.12" y="-229.76" font-family="Helvetica,sans-Serif" font-size="10.00"> &#160;&#160;</text>
<text text-anchor="start" x="438.12" y="-229.76" font-family="Helvetica,sans-Serif" font-size="10.00">v2</text>
<text text-anchor="start" x="348.88" y="-219.76" font-family="Helvetica,sans-Serif" font-size="10.00">(4096, 4096) &#45; RGBA32F [2D]</text>
<polyline fill="none" stroke="black" points="334.48,-216.1 491.52,-216.1"/>
<text text-anchor="start" x="395.38" y="-204.44" font-family="Helvetica,sans-Serif" font-size="10.00">Index: 9</text>
<text text-anchor="start" x="395.75" y="-192.44" font-family="Helvetica,sans-Serif" font-size="10.00">Refs : 1</text>
</g>
<!-- P4&#45;&gt;R9_2 -->
<g id="edge7" class="edge">
<title>P4&#45;&gt;R9_2</title>
<path fill="none" stroke="orangered" d="M485.51,-276.98C475.2,-268.19 463.08,-257.84 451.73,-248.16"/>
<polygon fill="orangered" stroke="orangered" points="454.27,-245.72 444.39,-241.89 449.73,-251.05 454.27,-245.72"/>
</g>
<!-- R10_2 -->
<g id="node19" class="node">
<title>R10_2</title>
<polygon fill="skyblue" stroke="black" points="509.73,-187.78 509.73,-240.42 710.27,-240.42 710.27,-187.78 509.73,-187.78"/>
<text text-anchor="start" x="572.12" y="-229.76" font-family="Helvetica,sans-Serif" font-weight="bold" font-size="10.00">SceneDepth</text>
<text text-anchor="start" x="629.88" y="-229.76" font-family="Helvetica,sans-Serif" font-size="10.00"> &#160;&#160;</text>
<text text-anchor="start" x="638.88" y="-229.76" font-family="Helvetica,sans-Serif" font-size="10.00">v2</text>
<text text-anchor="start" x="524.12" y="-219.76" font-family="Helvetica,sans-Serif" font-size="10.00">(4096, 4096) &#45; BGRA8_UNORM [Depth]</text>
<polyline fill="none" stroke="black" points="509.73,-216.1 710.27,-216.1"/>
<text text-anchor="start" x="590.12" y="-204.44" font-family="Helvetica,sans-Serif" font-size="10.00">Index: 10</text>
<text text-anchor="start" x="593.12" y="-192.44" font-family="Helvetica,sans-Serif" font-size="10.00">Refs : 0</text>
</g>
<!-- P4&#45;&gt;R10_2 -->
<g id="edge8" class="edge">
<title>P4&#45;&gt;R10_2</title>
<path fill="none" stroke="orangered" d="M536.75,-276.98C547.16,-268.19 559.41,-257.84 570.87,-248.16"/>
<polygon fill="orangered" stroke="orangered" points="572.91,-251.02 578.29,-241.89 568.4,-245.67 572.91,-251.02"/>
</g>
<!-- P5 -->
<g id="node6" class="node">
<title>P5</title>
<path fill="orange" stroke="black" d="M325.85,-106.14C325.85,-106.14 500.15,-106.14 500.15,-106.14 506.15,-106.14 512.15,-112.14 512.15,-118.14 512.15,-118.14 512.15,-138.78 512.15,-138.78 512.15,-144.78 506.15,-150.78 500.15,-150.78 500.15,-150.78 325.85,-150.78 325.85,-150.78 319.85,-150.78 313.85,-144.78 313.85,-138.78 313.85,-138.78 313.85,-118.14 313.85,-118.14 313.85,-112.14 319.85,-106.14 325.85,-106.14"/>
<text text-anchor="start" x="328.25" y="-140.12" font-family="Helvetica,sans-Serif" font-weight="bold" font-size="10.00">Pass.Builtin.Code.FinalComposition</text>
<polyline fill="none" stroke="black" points="313.85,-134.46 512.15,-134.46"/>
<text text-anchor="start" x="388.25" y="-122.8" font-family="Helvetica,sans-Serif" font-size="10.00">★ Refs: 1</text>
<text text-anchor="start" x="394.25" y="-110.8" font-family="Helvetica,sans-Serif" font-size="10.00"> Index: 5</text>
</g>
<!-- R11_1 -->
<g id="node20" class="node">
<title>R11_1</title>
<polygon fill="skyblue" stroke="black" points="329.98,-16.5 329.98,-69.14 496.02,-69.14 496.02,-16.5 329.98,-16.5"/>
<text text-anchor="start" x="378.5" y="-58.48" font-family="Helvetica,sans-Serif" font-weight="bold" font-size="10.00">Present Image</text>
<text text-anchor="start" x="344.38" y="-48.48" font-family="Helvetica,sans-Serif" font-size="10.00">(80, 10) &#45; BGRA8_UNORM [2D]</text>
<polyline fill="none" stroke="black" points="329.98,-44.82 496.02,-44.82"/>
<text text-anchor="start" x="392.88" y="-33.16" font-family="Helvetica,sans-Serif" font-size="10.00">Index: 11</text>
<text text-anchor="start" x="395.88" y="-21.16" font-family="Helvetica,sans-Serif" font-size="10.00">Refs : 0</text>
</g>
<!-- P5&#45;&gt;R11_1 -->
<g id="edge9" class="edge">
<title>P5&#45;&gt;R11_1</title>
<path fill="none" stroke="orangered" d="M413,-105.92C413,-98.27 413,-89.42 413,-80.84"/>
<polygon fill="orangered" stroke="orangered" points="416.5,-80.97 413,-70.97 409.5,-80.97 416.5,-80.97"/>
</g>
<!-- R0_1 -->
<g id="node7" class="node">
<title>R0_1</title>
<polygon fill="lightsteelblue" stroke="black" points="967.35,-530.34 967.35,-582.98 1102.65,-582.98 1102.65,-530.34 967.35,-530.34"/>
<text text-anchor="start" x="1015.88" y="-572.32" font-family="Helvetica,sans-Serif" font-weight="bold" font-size="10.00">BrdfLUT</text>
<text text-anchor="start" x="981.75" y="-562.32" font-family="Helvetica,sans-Serif" font-size="10.00">(400, 400) &#45; RGBA8 [2D]</text>
<polyline fill="none" stroke="black" points="967.35,-558.66 1102.65,-558.66"/>
<text text-anchor="start" x="1017.75" y="-547" font-family="Helvetica,sans-Serif" font-size="10.00">Index: 0</text>
<text text-anchor="start" x="1018.12" y="-535" font-family="Helvetica,sans-Serif" font-size="10.00">Refs : 1</text>
</g>
<!-- R0_1&#45;&gt;P3 -->
<g id="edge10" class="edge">
<title>R0_1&#45;&gt;P3</title>
<path fill="none" stroke="#9acd32" d="M981.19,-529.96C973.83,-526.96 966.3,-524.16 959,-521.84 904.79,-504.63 842.02,-492.18 792.82,-484.02"/>
<polygon fill="#9acd32" stroke="#9acd32" points="793.5,-480.59 783.07,-482.44 792.38,-487.5 793.5,-480.59"/>
</g>
<!-- R1_1 -->
<g id="node8" class="node">
<title>R1_1</title>
<polygon fill="lightsteelblue" stroke="black" points="814.35,-530.34 814.35,-582.98 949.65,-582.98 949.65,-530.34 814.35,-530.34"/>
<text text-anchor="start" x="850.5" y="-572.32" font-family="Helvetica,sans-Serif" font-weight="bold" font-size="10.00">NoiseTexture</text>
<text text-anchor="start" x="828.75" y="-562.32" font-family="Helvetica,sans-Serif" font-size="10.00">(128, 128) &#45; RGBA8 [2D]</text>
<polyline fill="none" stroke="black" points="814.35,-558.66 949.65,-558.66"/>
<text text-anchor="start" x="864.75" y="-547" font-family="Helvetica,sans-Serif" font-size="10.00">Index: 1</text>
<text text-anchor="start" x="865.12" y="-535" font-family="Helvetica,sans-Serif" font-size="10.00">Refs : 0</text>
</g>
<!-- R2_1 -->
<g id="node9" class="node">
<title>R2_1</title>
<polygon fill="lightsteelblue" stroke="black" points="620.1,-530.34 620.1,-582.98 795.9,-582.98 795.9,-530.34 620.1,-530.34"/>
<text text-anchor="start" x="667.88" y="-572.32" font-family="Helvetica,sans-Serif" font-weight="bold" font-size="10.00">EnvironmentMap</text>
<text text-anchor="start" x="634.5" y="-562.32" font-family="Helvetica,sans-Serif" font-size="10.00">(512, 512) &#45; RGBA32F [CubeMap]</text>
<polyline fill="none" stroke="black" points="620.1,-558.66 795.9,-558.66"/>
<text text-anchor="start" x="690.5" y="-547" font-family="Helvetica,sans-Serif" font-size="10.00">Index: 2</text>
<text text-anchor="start" x="690.88" y="-535" font-family="Helvetica,sans-Serif" font-size="10.00">Refs : 1</text>
</g>
<!-- R2_1&#45;&gt;P3 -->
<g id="edge11" class="edge">
<title>R2_1&#45;&gt;P3</title>
<path fill="none" stroke="#9acd32" d="M708,-530.11C708,-522.21 708,-513.39 708,-505.06"/>
<polygon fill="#9acd32" stroke="#9acd32" points="711.5,-505.26 708,-495.26 704.5,-505.26 711.5,-505.26"/>
</g>
<!-- R3_1 -->
<g id="node10" class="node">
<title>R3_1</title>
<polygon fill="lightsteelblue" stroke="black" points="436.35,-530.34 436.35,-582.98 601.65,-582.98 601.65,-530.34 436.35,-530.34"/>
<text text-anchor="start" x="484.5" y="-572.32" font-family="Helvetica,sans-Serif" font-weight="bold" font-size="10.00">IrradianceMap</text>
<text text-anchor="start" x="450.75" y="-562.32" font-family="Helvetica,sans-Serif" font-size="10.00">(32, 32) &#45; RGBA32F [CubeMap]</text>
<polyline fill="none" stroke="black" points="436.35,-558.66 601.65,-558.66"/>
<text text-anchor="start" x="501.75" y="-547" font-family="Helvetica,sans-Serif" font-size="10.00">Index: 3</text>
<text text-anchor="start" x="502.12" y="-535" font-family="Helvetica,sans-Serif" font-size="10.00">Refs : 1</text>
</g>
<!-- R3_1&#45;&gt;P3 -->
<g id="edge12" class="edge">
<title>R3_1&#45;&gt;P3</title>
<path fill="none" stroke="#9acd32" d="M577.25,-529.88C599.81,-519.9 625.63,-508.47 648.33,-498.43"/>
<polygon fill="#9acd32" stroke="#9acd32" points="649.74,-501.63 657.47,-494.38 646.91,-495.23 649.74,-501.63"/>
</g>
<!-- R4_1 -->
<g id="node11" class="node">
<title>R4_1</title>
<polygon fill="lightsteelblue" stroke="black" points="242.1,-530.34 242.1,-582.98 417.9,-582.98 417.9,-530.34 242.1,-530.34"/>
<text text-anchor="start" x="293.25" y="-572.32" font-family="Helvetica,sans-Serif" font-weight="bold" font-size="10.00">PreFilteredMap</text>
<text text-anchor="start" x="256.5" y="-562.32" font-family="Helvetica,sans-Serif" font-size="10.00">(128, 128) &#45; RGBA32F [CubeMap]</text>
<polyline fill="none" stroke="black" points="242.1,-558.66 417.9,-558.66"/>
<text text-anchor="start" x="312.5" y="-547" font-family="Helvetica,sans-Serif" font-size="10.00">Index: 4</text>
<text text-anchor="start" x="312.88" y="-535" font-family="Helvetica,sans-Serif" font-size="10.00">Refs : 1</text>
</g>
<!-- R4_1&#45;&gt;P3 -->
<g id="edge13" class="edge">
<title>R4_1&#45;&gt;P3</title>
<path fill="none" stroke="#9acd32" d="M399.53,-529.92C408.7,-526.97 418.03,-524.18 427,-521.84 491.92,-504.88 566.78,-491.93 622.91,-483.48"/>
<polygon fill="#9acd32" stroke="#9acd32" points="623.36,-486.95 632.74,-482.02 622.33,-480.03 623.36,-486.95"/>
</g>
<!-- R5_1&#45;&gt;P3 -->
<g id="edge14" class="edge">
<title>R5_1&#45;&gt;P3</title>
<path fill="none" stroke="#9acd32" d="M210.34,-529.88C216.74,-526.74 223.42,-523.91 230,-521.84 301.15,-499.44 506.08,-484.03 623.21,-476.77"/>
<polygon fill="#9acd32" stroke="#9acd32" points="623.34,-480.27 633.1,-476.16 622.91,-473.28 623.34,-480.27"/>
</g>
<!-- R5_1&#45;&gt;P4 -->
<g id="edge15" class="edge">
<title>R5_1&#45;&gt;P4</title>
<path fill="none" stroke="#9acd32" d="M197.02,-529.85C242.03,-489.06 334.13,-408.43 420,-350.56 431.79,-342.62 444.95,-334.84 457.53,-327.88"/>
<polygon fill="#9acd32" stroke="#9acd32" points="459.01,-331.06 466.12,-323.2 455.66,-324.91 459.01,-331.06"/>
</g>
<!-- R6_1&#45;&gt;P3 -->
<g id="edge16" class="edge">
<title>R6_1&#45;&gt;P3</title>
<path fill="none" stroke="#9acd32" d="M1157.2,-534.27C1143.58,-529.59 1128.9,-525.07 1115,-521.84 1005.41,-496.34 875.99,-483.33 793,-477.12"/>
<polygon fill="#9acd32" stroke="#9acd32" points="793.35,-473.63 783.12,-476.4 792.84,-480.61 793.35,-473.63"/>
</g>
<!-- R7_1&#45;&gt;P3 -->
<g id="edge17" class="edge">
<title>R7_1&#45;&gt;P3</title>
<path fill="none" stroke="#9acd32" d="M1403.51,-529.89C1392.04,-526.76 1380.28,-523.94 1369,-521.84 1164.67,-483.76 919.64,-474.61 793.05,-472.53"/>
<polygon fill="#9acd32" stroke="#9acd32" points="793.11,-469.03 783.06,-472.38 793,-476.03 793.11,-469.03"/>
</g>
<!-- R8_1&#45;&gt;P3 -->
<g id="edge18" class="edge">
<title>R8_1&#45;&gt;P3</title>
<path fill="none" stroke="#9acd32" d="M1611.93,-529.94C1604.79,-526.7 1597.33,-523.83 1590,-521.84 1441.5,-481.54 983.95,-473.81 793.04,-472.35"/>
<polygon fill="#9acd32" stroke="#9acd32" points="793.21,-468.85 783.19,-472.28 793.16,-475.85 793.21,-468.85"/>
</g>
<!-- R9_1&#45;&gt;P4 -->
<g id="edge19" class="edge">
<title>R9_1&#45;&gt;P4</title>
<path fill="none" stroke="#9acd32" d="M511,-358.83C511,-350.93 511,-342.11 511,-333.78"/>
<polygon fill="#9acd32" stroke="#9acd32" points="514.5,-333.98 511,-323.98 507.5,-333.98 514.5,-333.98"/>
</g>
<!-- R10_1&#45;&gt;P4 -->
<g id="edge20" class="edge">
<title>R10_1&#45;&gt;P4</title>
<path fill="none" stroke="#9acd32" d="M647.29,-358.6C623.55,-348.53 596.37,-336.98 572.55,-326.87"/>
<polygon fill="#9acd32" stroke="#9acd32" points="574.19,-323.77 563.62,-323.08 571.46,-330.21 574.19,-323.77"/>
</g>
<!-- R9_2&#45;&gt;P5 -->
<g id="edge21" class="edge">
<title>R9_2&#45;&gt;P5</title>
<path fill="none" stroke="#9acd32" d="M413,-187.55C413,-179.65 413,-170.83 413,-162.5"/>
<polygon fill="#9acd32" stroke="#9acd32" points="416.5,-162.7 413,-152.7 409.5,-162.7 416.5,-162.7"/>
</g>
</g>
</svg>
