<?xml version="1.0" encoding="UTF-8" standalone="no"?>
<!DOCTYPE svg PUBLIC "-//W3C//DTD SVG 1.1//EN"
 "http://www.w3.org/Graphics/SVG/1.1/DTD/svg11.dtd">
<!-- Generated by graphviz version 7.0.4 (20221203.1631)
 -->
<!-- Title: FrameGraph Pages: 1 -->
<svg width="1780pt" height="337pt"
 viewBox="0.00 0.00 1780.00 337.00" xmlns="http://www.w3.org/2000/svg" xmlns:xlink="http://www.w3.org/1999/xlink">
<g id="graph0" class="graph" transform="scale(1 1) rotate(0) translate(4 333)">
<title>FrameGraph</title>
<polygon fill="white" stroke="none" points="-4,4 -4,-333 1776,-333 1776,4 -4,4"/>
<g id="clust18" class="cluster">
<title>cluster_2</title>
</g>
<g id="clust17" class="cluster">
<title>cluster_1</title>
</g>
<g id="clust16" class="cluster">
<title>cluster_0</title>
</g>
<g id="clust19" class="cluster">
<title>cluster_3</title>
</g>
<g id="clust20" class="cluster">
<title>cluster_imported_resources</title>
<polygon fill="none" stroke="black" stroke-dasharray="1,5" points="234,-173 234,-263 1113,-263 1113,-173 234,-173"/>
<text text-anchor="start" x="638" y="-248.8" font-family="Helvetica,sans-Serif" font-size="14.00"> </text>
<text text-anchor="start" x="642" y="-248.8" font-family="Helvetica,sans-Serif" font-weight="bold" font-size="14.00">Imported</text>
<text text-anchor="start" x="705" y="-248.8" font-family="Helvetica,sans-Serif" font-size="14.00"> </text>
</g>
<!-- P0 -->
<g id="node1" class="node">
<title>P0</title>
<path fill="orange" stroke="black" d="M28.5,-271.5C28.5,-271.5 205.5,-271.5 205.5,-271.5 211.5,-271.5 217.5,-277.5 217.5,-283.5 217.5,-283.5 217.5,-300.5 217.5,-300.5 217.5,-306.5 211.5,-312.5 205.5,-312.5 205.5,-312.5 28.5,-312.5 28.5,-312.5 22.5,-312.5 16.5,-306.5 16.5,-300.5 16.5,-300.5 16.5,-283.5 16.5,-283.5 16.5,-277.5 22.5,-271.5 28.5,-271.5"/>
<text text-anchor="start" x="30.5" y="-303.5" font-family="Helvetica,sans-Serif" font-weight="bold" font-size="10.00">Pass.Builtin.Code.FrameDataUpload</text>
<polyline fill="none" stroke="black" points="16.5,-297.5 217.5,-297.5"/>
<text text-anchor="start" x="92" y="-287.5" font-family="Helvetica,sans-Serif" font-size="10.00">★ Refs: 1</text>
<text text-anchor="start" x="98" y="-276.5" font-family="Helvetica,sans-Serif" font-size="10.00"> Index: 0</text>
</g>
<!-- R5_1 -->
<g id="node10" class="node">
<title>R5_1</title>
<polygon fill="skyblue" stroke="black" points="94,-181.5 94,-231.5 192,-231.5 192,-181.5 94,-181.5"/>
<text text-anchor="start" x="116.5" y="-222.5" font-family="Helvetica,sans-Serif" font-weight="bold" font-size="10.00">FrameData</text>
<text text-anchor="start" x="108" y="-212.5" font-family="Helvetica,sans-Serif" font-size="10.00">size : 304 bytes</text>
<polyline fill="none" stroke="black" points="94,-207.5 192,-207.5"/>
<text text-anchor="start" x="125.5" y="-197.5" font-family="Helvetica,sans-Serif" font-size="10.00">Index: 5</text>
<text text-anchor="start" x="126" y="-186.5" font-family="Helvetica,sans-Serif" font-size="10.00">Refs : 1</text>
</g>
<!-- P0&#45;&gt;R5_1 -->
<g id="edge1" class="edge">
<title>P0&#45;&gt;R5_1</title>
<path fill="none" stroke="orangered" d="M123.03,-271.63C125.76,-262.88 129.06,-252.27 132.19,-242.22"/>
<polygon fill="orangered" stroke="orangered" points="135.53,-243.27 135.16,-232.68 128.85,-241.18 135.53,-243.27"/>
</g>
<!-- P1 -->
<g id="node2" class="node">
<title>P1</title>
<path fill="orange" stroke="black" d="M1141.5,-271.5C1141.5,-271.5 1346.5,-271.5 1346.5,-271.5 1352.5,-271.5 1358.5,-277.5 1358.5,-283.5 1358.5,-283.5 1358.5,-300.5 1358.5,-300.5 1358.5,-306.5 1352.5,-312.5 1346.5,-312.5 1346.5,-312.5 1141.5,-312.5 1141.5,-312.5 1135.5,-312.5 1129.5,-306.5 1129.5,-300.5 1129.5,-300.5 1129.5,-283.5 1129.5,-283.5 1129.5,-277.5 1135.5,-271.5 1141.5,-271.5"/>
<text text-anchor="start" x="1143.5" y="-303.5" font-family="Helvetica,sans-Serif" font-weight="bold" font-size="10.00">Pass.Builtin.Code.SceneLightsDataUpload</text>
<polyline fill="none" stroke="black" points="1129.5,-297.5 1358.5,-297.5"/>
<text text-anchor="start" x="1219" y="-287.5" font-family="Helvetica,sans-Serif" font-size="10.00">★ Refs: 1</text>
<text text-anchor="start" x="1225" y="-276.5" font-family="Helvetica,sans-Serif" font-size="10.00"> Index: 1</text>
</g>
<!-- R6_1 -->
<g id="node11" class="node">
<title>R6_1</title>
<polygon fill="skyblue" stroke="black" points="1159.5,-181.5 1159.5,-231.5 1268.5,-231.5 1268.5,-181.5 1159.5,-181.5"/>
<text text-anchor="start" x="1173.5" y="-222.5" font-family="Helvetica,sans-Serif" font-weight="bold" font-size="10.00">SceneLightsData</text>
<text text-anchor="start" x="1173.5" y="-212.5" font-family="Helvetica,sans-Serif" font-size="10.00">size : 10256 bytes</text>
<polyline fill="none" stroke="black" points="1159.5,-207.5 1268.5,-207.5"/>
<text text-anchor="start" x="1196.5" y="-197.5" font-family="Helvetica,sans-Serif" font-size="10.00">Index: 6</text>
<text text-anchor="start" x="1197" y="-186.5" font-family="Helvetica,sans-Serif" font-size="10.00">Refs : 1</text>
</g>
<!-- P1&#45;&gt;R6_1 -->
<g id="edge2" class="edge">
<title>P1&#45;&gt;R6_1</title>
<path fill="none" stroke="orangered" d="M1237.04,-271.63C1233.86,-262.79 1230,-252.04 1226.36,-241.89"/>
<polygon fill="orangered" stroke="orangered" points="1229.71,-240.88 1223.04,-232.66 1223.13,-243.25 1229.71,-240.88"/>
</g>
<!-- P2 -->
<g id="node3" class="node">
<title>P2</title>
<path fill="#ee2c2c" stroke="black" d="M1490.5,-271.5C1490.5,-271.5 1631.5,-271.5 1631.5,-271.5 1637.5,-271.5 1643.5,-277.5 1643.5,-283.5 1643.5,-283.5 1643.5,-300.5 1643.5,-300.5 1643.5,-306.5 1637.5,-312.5 1631.5,-312.5 1631.5,-312.5 1490.5,-312.5 1490.5,-312.5 1484.5,-312.5 1478.5,-306.5 1478.5,-300.5 1478.5,-300.5 1478.5,-283.5 1478.5,-283.5 1478.5,-277.5 1484.5,-271.5 1490.5,-271.5"/>
<text text-anchor="start" x="1492.5" y="-303.5" font-family="Helvetica,sans-Serif" font-weight="bold" font-size="10.00">Pass.Builtin.RenderShadows</text>
<polyline fill="none" stroke="black" points="1478.5,-297.5 1643.5,-297.5"/>
<text text-anchor="start" x="1536" y="-287.5" font-family="Helvetica,sans-Serif" font-size="10.00">★ Refs: 2</text>
<text text-anchor="start" x="1542" y="-276.5" font-family="Helvetica,sans-Serif" font-size="10.00"> Index: 2</text>
</g>
<!-- R7_1 -->
<g id="node12" class="node">
<title>R7_1</title>
<polygon fill="skyblue" stroke="black" points="1383.5,-181.5 1383.5,-231.5 1540.5,-231.5 1540.5,-181.5 1383.5,-181.5"/>
<text text-anchor="start" x="1432" y="-222.5" font-family="Helvetica,sans-Serif" font-weight="bold" font-size="10.00">ShadowMap</text>
<text text-anchor="start" x="1397.5" y="-212.5" font-family="Helvetica,sans-Serif" font-size="10.00">(4096, 4096) &#45; RGBA32F [2D]</text>
<polyline fill="none" stroke="black" points="1383.5,-207.5 1540.5,-207.5"/>
<text text-anchor="start" x="1444.5" y="-197.5" font-family="Helvetica,sans-Serif" font-size="10.00">Index: 7</text>
<text text-anchor="start" x="1445" y="-186.5" font-family="Helvetica,sans-Serif" font-size="10.00">Refs : 1</text>
</g>
<!-- P2&#45;&gt;R7_1 -->
<g id="edge3" class="edge">
<title>P2&#45;&gt;R7_1</title>
<path fill="none" stroke="orangered" d="M1538.04,-271.63C1526.32,-261.75 1511.8,-249.5 1498.59,-238.36"/>
<polygon fill="orangered" stroke="orangered" points="1501.2,-235.98 1491.29,-232.21 1496.68,-241.33 1501.2,-235.98"/>
</g>
<!-- R8_1 -->
<g id="node13" class="node">
<title>R8_1</title>
<polygon fill="skyblue" stroke="black" points="1558.5,-181.5 1558.5,-231.5 1755.5,-231.5 1755.5,-181.5 1558.5,-181.5"/>
<text text-anchor="start" x="1572.5" y="-222.5" font-family="Helvetica,sans-Serif" font-weight="bold" font-size="10.00">ShadowMapData.LightSpaceMatrix</text>
<text text-anchor="start" x="1624.5" y="-212.5" font-family="Helvetica,sans-Serif" font-size="10.00">size : 64 bytes</text>
<polyline fill="none" stroke="black" points="1558.5,-207.5 1755.5,-207.5"/>
<text text-anchor="start" x="1639.5" y="-197.5" font-family="Helvetica,sans-Serif" font-size="10.00">Index: 8</text>
<text text-anchor="start" x="1640" y="-186.5" font-family="Helvetica,sans-Serif" font-size="10.00">Refs : 1</text>
</g>
<!-- P2&#45;&gt;R8_1 -->
<g id="edge4" class="edge">
<title>P2&#45;&gt;R8_1</title>
<path fill="none" stroke="orangered" d="M1583.27,-271.63C1594.52,-261.85 1608.45,-249.73 1621.16,-238.68"/>
<polygon fill="orangered" stroke="orangered" points="1623.32,-241.43 1628.57,-232.23 1618.73,-236.15 1623.32,-241.43"/>
</g>
<!-- P3 -->
<g id="node4" class="node">
<title>P3</title>
<path fill="#ee2c2c" stroke="black" d="M822,-103.5C822,-103.5 944,-103.5 944,-103.5 950,-103.5 956,-109.5 956,-115.5 956,-115.5 956,-132.5 956,-132.5 956,-138.5 950,-144.5 944,-144.5 944,-144.5 822,-144.5 822,-144.5 816,-144.5 810,-138.5 810,-132.5 810,-132.5 810,-115.5 810,-115.5 810,-109.5 816,-103.5 822,-103.5"/>
<text text-anchor="start" x="824" y="-135.5" font-family="Helvetica,sans-Serif" font-weight="bold" font-size="10.00">Pass.Builtin.PBRLighting</text>
<polyline fill="none" stroke="black" points="810,-129.5 956,-129.5"/>
<text text-anchor="start" x="858" y="-119.5" font-family="Helvetica,sans-Serif" font-size="10.00">★ Refs: 2</text>
<text text-anchor="start" x="864" y="-108.5" font-family="Helvetica,sans-Serif" font-size="10.00"> Index: 3</text>
</g>
<!-- R9_1 -->
<g id="node14" class="node">
<title>R9_1</title>
<polygon fill="skyblue" stroke="black" points="717.5,-16.5 717.5,-66.5 874.5,-66.5 874.5,-16.5 717.5,-16.5"/>
<text text-anchor="start" x="770.5" y="-57.5" font-family="Helvetica,sans-Serif" font-weight="bold" font-size="10.00">SceneHDR</text>
<text text-anchor="start" x="731.5" y="-47.5" font-family="Helvetica,sans-Serif" font-size="10.00">(4096, 4096) &#45; RGBA32F [2D]</text>
<polyline fill="none" stroke="black" points="717.5,-42.5 874.5,-42.5"/>
<text text-anchor="start" x="778.5" y="-32.5" font-family="Helvetica,sans-Serif" font-size="10.00">Index: 9</text>
<text text-anchor="start" x="779" y="-21.5" font-family="Helvetica,sans-Serif" font-size="10.00">Refs : 0</text>
</g>
<!-- P3&#45;&gt;R9_1 -->
<g id="edge5" class="edge">
<title>P3&#45;&gt;R9_1</title>
<path fill="none" stroke="orangered" d="M861.94,-103.51C852.42,-94.7 840.92,-84.06 830.21,-74.15"/>
<polygon fill="orangered" stroke="orangered" points="832.67,-71.66 822.95,-67.44 827.91,-76.8 832.67,-71.66"/>
</g>
<!-- R10_1 -->
<g id="node15" class="node">
<title>R10_1</title>
<polygon fill="skyblue" stroke="black" points="892.5,-16.5 892.5,-66.5 1049.5,-66.5 1049.5,-16.5 892.5,-16.5"/>
<text text-anchor="start" x="942" y="-57.5" font-family="Helvetica,sans-Serif" font-weight="bold" font-size="10.00">SceneDepth</text>
<text text-anchor="start" x="906.5" y="-47.5" font-family="Helvetica,sans-Serif" font-size="10.00">(4096, 4096) &#45; RGBA32F [2D]</text>
<polyline fill="none" stroke="black" points="892.5,-42.5 1049.5,-42.5"/>
<text text-anchor="start" x="951" y="-32.5" font-family="Helvetica,sans-Serif" font-size="10.00">Index: 10</text>
<text text-anchor="start" x="954" y="-21.5" font-family="Helvetica,sans-Serif" font-size="10.00">Refs : 0</text>
</g>
<!-- P3&#45;&gt;R10_1 -->
<g id="edge6" class="edge">
<title>P3&#45;&gt;R10_1</title>
<path fill="none" stroke="orangered" d="M904.3,-103.51C913.94,-94.7 925.57,-84.06 936.4,-74.15"/>
<polygon fill="orangered" stroke="orangered" points="938.73,-76.76 943.75,-67.43 934.01,-71.6 938.73,-76.76"/>
</g>
<!-- R0_1 -->
<g id="node5" class="node">
<title>R0_1</title>
<polygon fill="lightsteelblue" stroke="black" points="969.5,-181.5 969.5,-231.5 1104.5,-231.5 1104.5,-181.5 969.5,-181.5"/>
<text text-anchor="start" x="993" y="-222.5" font-family="Helvetica,sans-Serif" font-weight="bold" font-size="10.00">Imported.BRDFLut</text>
<text text-anchor="start" x="983.5" y="-212.5" font-family="Helvetica,sans-Serif" font-size="10.00">(400, 400) &#45; RGBA8 [2D]</text>
<polyline fill="none" stroke="black" points="969.5,-207.5 1104.5,-207.5"/>
<text text-anchor="start" x="1019.5" y="-197.5" font-family="Helvetica,sans-Serif" font-size="10.00">Index: 0</text>
<text text-anchor="start" x="1020" y="-186.5" font-family="Helvetica,sans-Serif" font-size="10.00">Refs : 1</text>
</g>
<!-- R0_1&#45;&gt;P3 -->
<g id="edge7" class="edge">
<title>R0_1&#45;&gt;P3</title>
<path fill="none" stroke="#9acd32" d="M991.21,-181.57C971.97,-171.51 949.6,-159.82 930.21,-149.68"/>
<polygon fill="#9acd32" stroke="#9acd32" points="931.91,-146.62 921.42,-145.09 928.67,-152.82 931.91,-146.62"/>
</g>
<!-- R1_1 -->
<g id="node6" class="node">
<title>R1_1</title>
<polygon fill="lightsteelblue" stroke="black" points="814.5,-181.5 814.5,-231.5 951.5,-231.5 951.5,-181.5 814.5,-181.5"/>
<text text-anchor="start" x="828.5" y="-222.5" font-family="Helvetica,sans-Serif" font-weight="bold" font-size="10.00">Imported.NoiseTexture</text>
<text text-anchor="start" x="829.5" y="-212.5" font-family="Helvetica,sans-Serif" font-size="10.00">(128, 128) &#45; RGBA8 [2D]</text>
<polyline fill="none" stroke="black" points="814.5,-207.5 951.5,-207.5"/>
<text text-anchor="start" x="865.5" y="-197.5" font-family="Helvetica,sans-Serif" font-size="10.00">Index: 1</text>
<text text-anchor="start" x="866" y="-186.5" font-family="Helvetica,sans-Serif" font-size="10.00">Refs : 1</text>
</g>
<!-- R1_1&#45;&gt;P3 -->
<g id="edge8" class="edge">
<title>R1_1&#45;&gt;P3</title>
<path fill="none" stroke="#9acd32" d="M883,-181.78C883,-173.62 883,-164.36 883,-155.72"/>
<polygon fill="#9acd32" stroke="#9acd32" points="886.5,-156 883,-146 879.5,-156 886.5,-156"/>
</g>
<!-- R2_1 -->
<g id="node7" class="node">
<title>R2_1</title>
<polygon fill="lightsteelblue" stroke="black" points="620,-181.5 620,-231.5 796,-231.5 796,-181.5 620,-181.5"/>
<text text-anchor="start" x="644.5" y="-222.5" font-family="Helvetica,sans-Serif" font-weight="bold" font-size="10.00">Imported.EnvironmentMap</text>
<text text-anchor="start" x="634" y="-212.5" font-family="Helvetica,sans-Serif" font-size="10.00">(512, 512) &#45; RGBA32F [CubeMap]</text>
<polyline fill="none" stroke="black" points="620,-207.5 796,-207.5"/>
<text text-anchor="start" x="690.5" y="-197.5" font-family="Helvetica,sans-Serif" font-size="10.00">Index: 2</text>
<text text-anchor="start" x="691" y="-186.5" font-family="Helvetica,sans-Serif" font-size="10.00">Refs : 1</text>
</g>
<!-- R2_1&#45;&gt;P3 -->
<g id="edge9" class="edge">
<title>R2_1&#45;&gt;P3</title>
<path fill="none" stroke="#9acd32" d="M760.03,-181.57C782.3,-171.32 808.25,-159.38 830.56,-149.12"/>
<polygon fill="#9acd32" stroke="#9acd32" points="831.86,-152.38 839.49,-145.02 828.94,-146.02 831.86,-152.38"/>
</g>
<!-- R3_1 -->
<g id="node8" class="node">
<title>R3_1</title>
<polygon fill="lightsteelblue" stroke="black" points="436.5,-181.5 436.5,-231.5 601.5,-231.5 601.5,-181.5 436.5,-181.5"/>
<text text-anchor="start" x="455.5" y="-222.5" font-family="Helvetica,sans-Serif" font-weight="bold" font-size="10.00">Imported.DiffuseIrradiance</text>
<text text-anchor="start" x="450.5" y="-212.5" font-family="Helvetica,sans-Serif" font-size="10.00">(32, 32) &#45; RGBA32F [CubeMap]</text>
<polyline fill="none" stroke="black" points="436.5,-207.5 601.5,-207.5"/>
<text text-anchor="start" x="501.5" y="-197.5" font-family="Helvetica,sans-Serif" font-size="10.00">Index: 3</text>
<text text-anchor="start" x="502" y="-186.5" font-family="Helvetica,sans-Serif" font-size="10.00">Refs : 1</text>
</g>
<!-- R3_1&#45;&gt;P3 -->
<g id="edge10" class="edge">
<title>R3_1&#45;&gt;P3</title>
<path fill="none" stroke="#9acd32" d="M582.42,-181.57C591.92,-178.43 601.66,-175.46 611,-173 673.13,-156.66 744.72,-144.28 798.86,-136.19"/>
<polygon fill="#9acd32" stroke="#9acd32" points="799.26,-139.67 808.64,-134.74 798.24,-132.74 799.26,-139.67"/>
</g>
<!-- R4_1 -->
<g id="node9" class="node">
<title>R4_1</title>
<polygon fill="lightsteelblue" stroke="black" points="242,-181.5 242,-231.5 418,-231.5 418,-181.5 242,-181.5"/>
<text text-anchor="start" x="259" y="-222.5" font-family="Helvetica,sans-Serif" font-weight="bold" font-size="10.00">Imported.SpecularPreFiltered</text>
<text text-anchor="start" x="256" y="-212.5" font-family="Helvetica,sans-Serif" font-size="10.00">(128, 128) &#45; RGBA32F [CubeMap]</text>
<polyline fill="none" stroke="black" points="242,-207.5 418,-207.5"/>
<text text-anchor="start" x="312.5" y="-197.5" font-family="Helvetica,sans-Serif" font-size="10.00">Index: 4</text>
<text text-anchor="start" x="313" y="-186.5" font-family="Helvetica,sans-Serif" font-size="10.00">Refs : 1</text>
</g>
<!-- R4_1&#45;&gt;P3 -->
<g id="edge11" class="edge">
<title>R4_1&#45;&gt;P3</title>
<path fill="none" stroke="#9acd32" d="M395.2,-181.5C405.73,-178.25 416.59,-175.26 427,-173 554.93,-145.19 706.69,-133.3 798.86,-128.35"/>
<polygon fill="#9acd32" stroke="#9acd32" points="799.04,-131.85 808.84,-127.83 798.68,-124.86 799.04,-131.85"/>
</g>
<!-- R5_1&#45;&gt;P3 -->
<g id="edge12" class="edge">
<title>R5_1&#45;&gt;P3</title>
<path fill="none" stroke="#9acd32" d="M191.95,-184.45C204.18,-179.97 217.4,-175.76 230,-173 336.06,-149.79 647.43,-134.49 798.65,-128.22"/>
<polygon fill="#9acd32" stroke="#9acd32" points="798.78,-131.72 808.62,-127.81 798.49,-124.72 798.78,-131.72"/>
</g>
<!-- R6_1&#45;&gt;P3 -->
<g id="edge13" class="edge">
<title>R6_1&#45;&gt;P3</title>
<path fill="none" stroke="#9acd32" d="M1159.72,-186.03C1145.89,-181.42 1130.98,-176.76 1117,-173 1067.81,-159.77 1011.94,-148.18 967.14,-139.71"/>
<polygon fill="#9acd32" stroke="#9acd32" points="967.96,-136.3 957.49,-137.9 966.67,-143.18 967.96,-136.3"/>
</g>
<!-- R7_1&#45;&gt;P3 -->
<g id="edge14" class="edge">
<title>R7_1&#45;&gt;P3</title>
<path fill="none" stroke="#9acd32" d="M1401.42,-181.55C1391.38,-178.26 1380.99,-175.24 1371,-173 1231.56,-141.74 1065.18,-130.84 967.13,-127.04"/>
<polygon fill="#9acd32" stroke="#9acd32" points="967.45,-123.54 957.33,-126.67 967.19,-130.54 967.45,-123.54"/>
</g>
<!-- R8_1&#45;&gt;P3 -->
<g id="edge15" class="edge">
<title>R8_1&#45;&gt;P3</title>
<path fill="none" stroke="#9acd32" d="M1586.18,-181.58C1574.21,-178.23 1561.84,-175.19 1550,-173 1342.79,-134.57 1094.08,-126.51 966.9,-125.07"/>
<polygon fill="#9acd32" stroke="#9acd32" points="967.27,-121.57 957.24,-124.97 967.2,-128.57 967.27,-121.57"/>
</g>
</g>
</svg>
