<?xml version="1.0" encoding="UTF-8" standalone="no"?>
<!DOCTYPE svg PUBLIC "-//W3C//DTD SVG 1.1//EN"
 "http://www.w3.org/Graphics/SVG/1.1/DTD/svg11.dtd">
<!-- Generated by graphviz version 7.0.4 (20221203.1631)
 -->
<!-- Title: FrameGraph Pages: 1 -->
<svg width="1737pt" height="337pt"
 viewBox="0.00 0.00 1737.00 337.00" xmlns="http://www.w3.org/2000/svg" xmlns:xlink="http://www.w3.org/1999/xlink">
<g id="graph0" class="graph" transform="scale(1 1) rotate(0) translate(4 333)">
<title>FrameGraph</title>
<polygon fill="white" stroke="none" points="-4,4 -4,-333 1733,-333 1733,4 -4,4"/>
<g id="clust18" class="cluster">
<title>cluster_2</title>
</g>
<g id="clust16" class="cluster">
<title>cluster_0</title>
</g>
<g id="clust17" class="cluster">
<title>cluster_1</title>
</g>
<g id="clust19" class="cluster">
<title>cluster_3</title>
</g>
<g id="clust20" class="cluster">
<title>cluster_imported_resources</title>
<polygon fill="none" stroke="black" stroke-dasharray="1,5" points="234,-173 234,-263 1111,-263 1111,-173 234,-173"/>
<text text-anchor="start" x="637" y="-248.8" font-family="Helvetica,sans-Serif" font-size="14.00"> </text>
<text text-anchor="start" x="641" y="-248.8" font-family="Helvetica,sans-Serif" font-weight="bold" font-size="14.00">Imported</text>
<text text-anchor="start" x="704" y="-248.8" font-family="Helvetica,sans-Serif" font-size="14.00"> </text>
</g>
<!-- P0 -->
<g id="node1" class="node">
<title>P0</title>
<path fill="orange" stroke="black" d="M28.5,-271.5C28.5,-271.5 205.5,-271.5 205.5,-271.5 211.5,-271.5 217.5,-277.5 217.5,-283.5 217.5,-283.5 217.5,-300.5 217.5,-300.5 217.5,-306.5 211.5,-312.5 205.5,-312.5 205.5,-312.5 28.5,-312.5 28.5,-312.5 22.5,-312.5 16.5,-306.5 16.5,-300.5 16.5,-300.5 16.5,-283.5 16.5,-283.5 16.5,-277.5 22.5,-271.5 28.5,-271.5"/>
<text text-anchor="start" x="30.5" y="-303.5" font-family="Helvetica,sans-Serif" font-weight="bold" font-size="10.00">Pass.Builtin.Code.FrameDataUpload</text>
<polyline fill="none" stroke="black" points="16.5,-297.5 217.5,-297.5"/>
<text text-anchor="start" x="92" y="-287.5" font-family="Helvetica,sans-Serif" font-size="10.00">★ Refs: 1</text>
<text text-anchor="start" x="98" y="-276.5" font-family="Helvetica,sans-Serif" font-size="10.00"> Index: 0</text>
</g>
<!-- R5_1 -->
<g id="node10" class="node">
<title>R5_1</title>
<polygon fill="skyblue" stroke="black" points="94,-181.5 94,-231.5 192,-231.5 192,-181.5 94,-181.5"/>
<text text-anchor="start" x="116.5" y="-222.5" font-family="Helvetica,sans-Serif" font-weight="bold" font-size="10.00">FrameData</text>
<text text-anchor="start" x="108" y="-212.5" font-family="Helvetica,sans-Serif" font-size="10.00">size : 304 bytes</text>
<polyline fill="none" stroke="black" points="94,-207.5 192,-207.5"/>
<text text-anchor="start" x="125.5" y="-197.5" font-family="Helvetica,sans-Serif" font-size="10.00">Index: 5</text>
<text text-anchor="start" x="126" y="-186.5" font-family="Helvetica,sans-Serif" font-size="10.00">Refs : 1</text>
</g>
<!-- P0&#45;&gt;R5_1 -->
<g id="edge1" class="edge">
<title>P0&#45;&gt;R5_1</title>
<path fill="none" stroke="orangered" d="M123.03,-271.63C125.76,-262.88 129.06,-252.27 132.19,-242.22"/>
<polygon fill="orangered" stroke="orangered" points="135.53,-243.27 135.16,-232.68 128.85,-241.18 135.53,-243.27"/>
</g>
<!-- P1 -->
<g id="node2" class="node">
<title>P1</title>
<path fill="orange" stroke="black" d="M1139.5,-271.5C1139.5,-271.5 1344.5,-271.5 1344.5,-271.5 1350.5,-271.5 1356.5,-277.5 1356.5,-283.5 1356.5,-283.5 1356.5,-300.5 1356.5,-300.5 1356.5,-306.5 1350.5,-312.5 1344.5,-312.5 1344.5,-312.5 1139.5,-312.5 1139.5,-312.5 1133.5,-312.5 1127.5,-306.5 1127.5,-300.5 1127.5,-300.5 1127.5,-283.5 1127.5,-283.5 1127.5,-277.5 1133.5,-271.5 1139.5,-271.5"/>
<text text-anchor="start" x="1141.5" y="-303.5" font-family="Helvetica,sans-Serif" font-weight="bold" font-size="10.00">Pass.Builtin.Code.SceneLightsDataUpload</text>
<polyline fill="none" stroke="black" points="1127.5,-297.5 1356.5,-297.5"/>
<text text-anchor="start" x="1217" y="-287.5" font-family="Helvetica,sans-Serif" font-size="10.00">★ Refs: 1</text>
<text text-anchor="start" x="1223" y="-276.5" font-family="Helvetica,sans-Serif" font-size="10.00"> Index: 1</text>
</g>
<!-- R6_1 -->
<g id="node11" class="node">
<title>R6_1</title>
<polygon fill="skyblue" stroke="black" points="1157.5,-181.5 1157.5,-231.5 1266.5,-231.5 1266.5,-181.5 1157.5,-181.5"/>
<text text-anchor="start" x="1171.5" y="-222.5" font-family="Helvetica,sans-Serif" font-weight="bold" font-size="10.00">SceneLightsData</text>
<text text-anchor="start" x="1171.5" y="-212.5" font-family="Helvetica,sans-Serif" font-size="10.00">size : 10256 bytes</text>
<polyline fill="none" stroke="black" points="1157.5,-207.5 1266.5,-207.5"/>
<text text-anchor="start" x="1194.5" y="-197.5" font-family="Helvetica,sans-Serif" font-size="10.00">Index: 6</text>
<text text-anchor="start" x="1195" y="-186.5" font-family="Helvetica,sans-Serif" font-size="10.00">Refs : 1</text>
</g>
<!-- P1&#45;&gt;R6_1 -->
<g id="edge2" class="edge">
<title>P1&#45;&gt;R6_1</title>
<path fill="none" stroke="orangered" d="M1235.04,-271.63C1231.86,-262.79 1228,-252.04 1224.36,-241.89"/>
<polygon fill="orangered" stroke="orangered" points="1227.71,-240.88 1221.04,-232.66 1221.13,-243.25 1227.71,-240.88"/>
</g>
<!-- P2 -->
<g id="node3" class="node">
<title>P2</title>
<path fill="#ee2c2c" stroke="black" d="M1484.5,-271.5C1484.5,-271.5 1625.5,-271.5 1625.5,-271.5 1631.5,-271.5 1637.5,-277.5 1637.5,-283.5 1637.5,-283.5 1637.5,-300.5 1637.5,-300.5 1637.5,-306.5 1631.5,-312.5 1625.5,-312.5 1625.5,-312.5 1484.5,-312.5 1484.5,-312.5 1478.5,-312.5 1472.5,-306.5 1472.5,-300.5 1472.5,-300.5 1472.5,-283.5 1472.5,-283.5 1472.5,-277.5 1478.5,-271.5 1484.5,-271.5"/>
<text text-anchor="start" x="1486.5" y="-303.5" font-family="Helvetica,sans-Serif" font-weight="bold" font-size="10.00">Pass.Builtin.RenderShadows</text>
<polyline fill="none" stroke="black" points="1472.5,-297.5 1637.5,-297.5"/>
<text text-anchor="start" x="1530" y="-287.5" font-family="Helvetica,sans-Serif" font-size="10.00">★ Refs: 2</text>
<text text-anchor="start" x="1536" y="-276.5" font-family="Helvetica,sans-Serif" font-size="10.00"> Index: 2</text>
</g>
<!-- R7_1 -->
<g id="node12" class="node">
<title>R7_1</title>
<polygon fill="skyblue" stroke="black" points="1381,-181.5 1381,-231.5 1581,-231.5 1581,-181.5 1381,-181.5"/>
<text text-anchor="start" x="1451" y="-222.5" font-family="Helvetica,sans-Serif" font-weight="bold" font-size="10.00">ShadowMap</text>
<text text-anchor="start" x="1395" y="-212.5" font-family="Helvetica,sans-Serif" font-size="10.00">(4096, 4096) &#45; BGRA8_UNORM [Depth]</text>
<polyline fill="none" stroke="black" points="1381,-207.5 1581,-207.5"/>
<text text-anchor="start" x="1463.5" y="-197.5" font-family="Helvetica,sans-Serif" font-size="10.00">Index: 7</text>
<text text-anchor="start" x="1464" y="-186.5" font-family="Helvetica,sans-Serif" font-size="10.00">Refs : 1</text>
</g>
<!-- P2&#45;&gt;R7_1 -->
<g id="edge3" class="edge">
<title>P2&#45;&gt;R7_1</title>
<path fill="none" stroke="orangered" d="M1537.84,-271.63C1529.41,-262.13 1519.04,-250.43 1509.48,-239.64"/>
<polygon fill="orangered" stroke="orangered" points="1512.29,-237.53 1503.04,-232.37 1507.05,-242.17 1512.29,-237.53"/>
</g>
<!-- R8_1 -->
<g id="node13" class="node">
<title>R8_1</title>
<polygon fill="skyblue" stroke="black" points="1599.5,-181.5 1599.5,-231.5 1712.5,-231.5 1712.5,-181.5 1599.5,-181.5"/>
<text text-anchor="start" x="1613.5" y="-222.5" font-family="Helvetica,sans-Serif" font-weight="bold" font-size="10.00">LightSpaceMatrix</text>
<text text-anchor="start" x="1623.5" y="-212.5" font-family="Helvetica,sans-Serif" font-size="10.00">size : 64 bytes</text>
<polyline fill="none" stroke="black" points="1599.5,-207.5 1712.5,-207.5"/>
<text text-anchor="start" x="1638.5" y="-197.5" font-family="Helvetica,sans-Serif" font-size="10.00">Index: 8</text>
<text text-anchor="start" x="1639" y="-186.5" font-family="Helvetica,sans-Serif" font-size="10.00">Refs : 1</text>
</g>
<!-- P2&#45;&gt;R8_1 -->
<g id="edge4" class="edge">
<title>P2&#45;&gt;R8_1</title>
<path fill="none" stroke="orangered" d="M1579.16,-271.8C1582.81,-268.86 1586.51,-265.86 1590,-263 1599.47,-255.23 1609.64,-246.75 1619.08,-238.82"/>
<polygon fill="orangered" stroke="orangered" points="1621.31,-241.51 1626.71,-232.39 1616.8,-236.16 1621.31,-241.51"/>
</g>
<!-- P3 -->
<g id="node4" class="node">
<title>P3</title>
<path fill="#ee2c2c" stroke="black" d="M810,-103.5C810,-103.5 932,-103.5 932,-103.5 938,-103.5 944,-109.5 944,-115.5 944,-115.5 944,-132.5 944,-132.5 944,-138.5 938,-144.5 932,-144.5 932,-144.5 810,-144.5 810,-144.5 804,-144.5 798,-138.5 798,-132.5 798,-132.5 798,-115.5 798,-115.5 798,-109.5 804,-103.5 810,-103.5"/>
<text text-anchor="start" x="812" y="-135.5" font-family="Helvetica,sans-Serif" font-weight="bold" font-size="10.00">Pass.Builtin.PBRLighting</text>
<polyline fill="none" stroke="black" points="798,-129.5 944,-129.5"/>
<text text-anchor="start" x="846" y="-119.5" font-family="Helvetica,sans-Serif" font-size="10.00">★ Refs: 2</text>
<text text-anchor="start" x="852" y="-108.5" font-family="Helvetica,sans-Serif" font-size="10.00"> Index: 3</text>
</g>
<!-- R9_1 -->
<g id="node14" class="node">
<title>R9_1</title>
<polygon fill="skyblue" stroke="black" points="694.5,-16.5 694.5,-66.5 851.5,-66.5 851.5,-16.5 694.5,-16.5"/>
<text text-anchor="start" x="747.5" y="-57.5" font-family="Helvetica,sans-Serif" font-weight="bold" font-size="10.00">SceneHDR</text>
<text text-anchor="start" x="708.5" y="-47.5" font-family="Helvetica,sans-Serif" font-size="10.00">(4096, 4096) &#45; RGBA32F [2D]</text>
<polyline fill="none" stroke="black" points="694.5,-42.5 851.5,-42.5"/>
<text text-anchor="start" x="755.5" y="-32.5" font-family="Helvetica,sans-Serif" font-size="10.00">Index: 9</text>
<text text-anchor="start" x="756" y="-21.5" font-family="Helvetica,sans-Serif" font-size="10.00">Refs : 0</text>
</g>
<!-- P3&#45;&gt;R9_1 -->
<g id="edge5" class="edge">
<title>P3&#45;&gt;R9_1</title>
<path fill="none" stroke="orangered" d="M847.28,-103.51C836.34,-94.53 823.08,-83.64 810.82,-73.56"/>
<polygon fill="orangered" stroke="orangered" points="813.22,-71.01 803.27,-67.37 808.78,-76.42 813.22,-71.01"/>
</g>
<!-- R10_1 -->
<g id="node15" class="node">
<title>R10_1</title>
<polygon fill="skyblue" stroke="black" points="870,-16.5 870,-66.5 1070,-66.5 1070,-16.5 870,-16.5"/>
<text text-anchor="start" x="941" y="-57.5" font-family="Helvetica,sans-Serif" font-weight="bold" font-size="10.00">SceneDepth</text>
<text text-anchor="start" x="884" y="-47.5" font-family="Helvetica,sans-Serif" font-size="10.00">(4096, 4096) &#45; BGRA8_UNORM [Depth]</text>
<polyline fill="none" stroke="black" points="870,-42.5 1070,-42.5"/>
<text text-anchor="start" x="950" y="-32.5" font-family="Helvetica,sans-Serif" font-size="10.00">Index: 10</text>
<text text-anchor="start" x="953" y="-21.5" font-family="Helvetica,sans-Serif" font-size="10.00">Refs : 0</text>
</g>
<!-- P3&#45;&gt;R10_1 -->
<g id="edge6" class="edge">
<title>P3&#45;&gt;R10_1</title>
<path fill="none" stroke="orangered" d="M894.97,-103.51C906.02,-94.53 919.41,-83.64 931.8,-73.56"/>
<polygon fill="orangered" stroke="orangered" points="933.87,-76.39 939.42,-67.36 929.46,-70.96 933.87,-76.39"/>
</g>
<!-- R0_1 -->
<g id="node5" class="node">
<title>R0_1</title>
<polygon fill="lightsteelblue" stroke="black" points="967.5,-181.5 967.5,-231.5 1102.5,-231.5 1102.5,-181.5 967.5,-181.5"/>
<text text-anchor="start" x="1014" y="-222.5" font-family="Helvetica,sans-Serif" font-weight="bold" font-size="10.00">BRDFLut</text>
<text text-anchor="start" x="981.5" y="-212.5" font-family="Helvetica,sans-Serif" font-size="10.00">(400, 400) &#45; RGBA8 [2D]</text>
<polyline fill="none" stroke="black" points="967.5,-207.5 1102.5,-207.5"/>
<text text-anchor="start" x="1017.5" y="-197.5" font-family="Helvetica,sans-Serif" font-size="10.00">Index: 0</text>
<text text-anchor="start" x="1018" y="-186.5" font-family="Helvetica,sans-Serif" font-size="10.00">Refs : 1</text>
</g>
<!-- R0_1&#45;&gt;P3 -->
<g id="edge7" class="edge">
<title>R0_1&#45;&gt;P3</title>
<path fill="none" stroke="#9acd32" d="M986.24,-181.57C965.56,-171.42 941.49,-159.6 920.71,-149.4"/>
<polygon fill="#9acd32" stroke="#9acd32" points="922.37,-146.32 911.85,-145.05 919.28,-152.6 922.37,-146.32"/>
</g>
<!-- R1_1 -->
<g id="node6" class="node">
<title>R1_1</title>
<polygon fill="lightsteelblue" stroke="black" points="814.5,-181.5 814.5,-231.5 949.5,-231.5 949.5,-181.5 814.5,-181.5"/>
<text text-anchor="start" x="850" y="-222.5" font-family="Helvetica,sans-Serif" font-weight="bold" font-size="10.00">NoiseTexture</text>
<text text-anchor="start" x="828.5" y="-212.5" font-family="Helvetica,sans-Serif" font-size="10.00">(128, 128) &#45; RGBA8 [2D]</text>
<polyline fill="none" stroke="black" points="814.5,-207.5 949.5,-207.5"/>
<text text-anchor="start" x="864.5" y="-197.5" font-family="Helvetica,sans-Serif" font-size="10.00">Index: 1</text>
<text text-anchor="start" x="865" y="-186.5" font-family="Helvetica,sans-Serif" font-size="10.00">Refs : 0</text>
</g>
<!-- R2_1 -->
<g id="node7" class="node">
<title>R2_1</title>
<polygon fill="lightsteelblue" stroke="black" points="620,-181.5 620,-231.5 796,-231.5 796,-181.5 620,-181.5"/>
<text text-anchor="start" x="667.5" y="-222.5" font-family="Helvetica,sans-Serif" font-weight="bold" font-size="10.00">EnvironmentMap</text>
<text text-anchor="start" x="634" y="-212.5" font-family="Helvetica,sans-Serif" font-size="10.00">(512, 512) &#45; RGBA32F [CubeMap]</text>
<polyline fill="none" stroke="black" points="620,-207.5 796,-207.5"/>
<text text-anchor="start" x="690.5" y="-197.5" font-family="Helvetica,sans-Serif" font-size="10.00">Index: 2</text>
<text text-anchor="start" x="691" y="-186.5" font-family="Helvetica,sans-Serif" font-size="10.00">Refs : 1</text>
</g>
<!-- R2_1&#45;&gt;P3 -->
<g id="edge8" class="edge">
<title>R2_1&#45;&gt;P3</title>
<path fill="none" stroke="#9acd32" d="M756.46,-181.57C777.02,-171.42 800.94,-159.6 821.59,-149.4"/>
<polygon fill="#9acd32" stroke="#9acd32" points="822.98,-152.62 830.39,-145.05 819.88,-146.34 822.98,-152.62"/>
</g>
<!-- R3_1 -->
<g id="node8" class="node">
<title>R3_1</title>
<polygon fill="lightsteelblue" stroke="black" points="436.5,-181.5 436.5,-231.5 601.5,-231.5 601.5,-181.5 436.5,-181.5"/>
<text text-anchor="start" x="484" y="-222.5" font-family="Helvetica,sans-Serif" font-weight="bold" font-size="10.00">IrradianceMap</text>
<text text-anchor="start" x="450.5" y="-212.5" font-family="Helvetica,sans-Serif" font-size="10.00">(32, 32) &#45; RGBA32F [CubeMap]</text>
<polyline fill="none" stroke="black" points="436.5,-207.5 601.5,-207.5"/>
<text text-anchor="start" x="501.5" y="-197.5" font-family="Helvetica,sans-Serif" font-size="10.00">Index: 3</text>
<text text-anchor="start" x="502" y="-186.5" font-family="Helvetica,sans-Serif" font-size="10.00">Refs : 1</text>
</g>
<!-- R3_1&#45;&gt;P3 -->
<g id="edge9" class="edge">
<title>R3_1&#45;&gt;P3</title>
<path fill="none" stroke="#9acd32" d="M582.44,-181.63C591.94,-178.49 601.67,-175.49 611,-173 668.93,-157.52 735.43,-145.34 786.68,-137.13"/>
<polygon fill="#9acd32" stroke="#9acd32" points="787.21,-140.59 796.54,-135.57 786.11,-133.67 787.21,-140.59"/>
</g>
<!-- R4_1 -->
<g id="node9" class="node">
<title>R4_1</title>
<polygon fill="lightsteelblue" stroke="black" points="242,-181.5 242,-231.5 418,-231.5 418,-181.5 242,-181.5"/>
<text text-anchor="start" x="293" y="-222.5" font-family="Helvetica,sans-Serif" font-weight="bold" font-size="10.00">PreFilteredMap</text>
<text text-anchor="start" x="256" y="-212.5" font-family="Helvetica,sans-Serif" font-size="10.00">(128, 128) &#45; RGBA32F [CubeMap]</text>
<polyline fill="none" stroke="black" points="242,-207.5 418,-207.5"/>
<text text-anchor="start" x="312.5" y="-197.5" font-family="Helvetica,sans-Serif" font-size="10.00">Index: 4</text>
<text text-anchor="start" x="313" y="-186.5" font-family="Helvetica,sans-Serif" font-size="10.00">Refs : 1</text>
</g>
<!-- R4_1&#45;&gt;P3 -->
<g id="edge10" class="edge">
<title>R4_1&#45;&gt;P3</title>
<path fill="none" stroke="#9acd32" d="M395.21,-181.53C405.73,-178.27 416.59,-175.28 427,-173 550.66,-145.93 697.18,-133.87 787.11,-128.68"/>
<polygon fill="#9acd32" stroke="#9acd32" points="787.03,-132.19 796.82,-128.13 786.64,-125.2 787.03,-132.19"/>
</g>
<!-- R5_1&#45;&gt;P3 -->
<g id="edge11" class="edge">
<title>R5_1&#45;&gt;P3</title>
<path fill="none" stroke="#9acd32" d="M191.96,-184.46C204.18,-179.98 217.4,-175.77 230,-173 333.78,-150.22 637.8,-134.77 786.77,-128.35"/>
<polygon fill="#9acd32" stroke="#9acd32" points="786.74,-131.86 796.58,-127.93 786.44,-124.86 786.74,-131.86"/>
</g>
<!-- R6_1&#45;&gt;P3 -->
<g id="edge12" class="edge">
<title>R6_1&#45;&gt;P3</title>
<path fill="none" stroke="#9acd32" d="M1157.74,-185.95C1143.91,-181.34 1128.99,-176.7 1115,-173 1062.36,-159.06 1002.35,-147.21 955.02,-138.77"/>
<polygon fill="#9acd32" stroke="#9acd32" points="955.84,-135.36 945.38,-137.07 954.62,-142.25 955.84,-135.36"/>
</g>
<!-- R7_1&#45;&gt;P3 -->
<g id="edge13" class="edge">
<title>R7_1&#45;&gt;P3</title>
<path fill="none" stroke="#9acd32" d="M1405.55,-181.54C1393.42,-178.28 1380.93,-175.29 1369,-173 1225.19,-145.45 1054.84,-133.37 955.25,-128.33"/>
<polygon fill="#9acd32" stroke="#9acd32" points="955.44,-124.84 945.28,-127.84 955.09,-131.83 955.44,-124.84"/>
</g>
<!-- R8_1&#45;&gt;P3 -->
<g id="edge14" class="edge">
<title>R8_1&#45;&gt;P3</title>
<path fill="none" stroke="#9acd32" d="M1613.64,-181.65C1605.97,-178.21 1597.9,-175.12 1590,-173 1472.52,-141.48 1118.66,-130.15 955.31,-126.52"/>
<polygon fill="#9acd32" stroke="#9acd32" points="955.47,-123.03 945.4,-126.31 955.32,-130.02 955.47,-123.03"/>
</g>
</g>
</svg>
