<?xml version="1.0" encoding="UTF-8" standalone="no"?>
<!DOCTYPE svg PUBLIC "-//W3C//DTD SVG 1.1//EN"
 "http://www.w3.org/Graphics/SVG/1.1/DTD/svg11.dtd">
<!-- Generated by graphviz version 7.0.4 (20221203.1631)
 -->
<!-- Title: FrameGraph Pages: 1 -->
<svg width="1737pt" height="502pt"
 viewBox="0.00 0.00 1737.00 502.00" xmlns="http://www.w3.org/2000/svg" xmlns:xlink="http://www.w3.org/1999/xlink">
<g id="graph0" class="graph" transform="scale(1 1) rotate(0) translate(4 498)">
<title>FrameGraph</title>
<polygon fill="white" stroke="none" points="-4,4 -4,-498 1733,-498 1733,4 -4,4"/>
<g id="clust21" class="cluster">
<title>cluster_2</title>
</g>
<g id="clust20" class="cluster">
<title>cluster_1</title>
</g>
<g id="clust22" class="cluster">
<title>cluster_3</title>
</g>
<g id="clust19" class="cluster">
<title>cluster_0</title>
</g>
<g id="clust23" class="cluster">
<title>cluster_4</title>
</g>
<g id="clust24" class="cluster">
<title>cluster_imported_resources</title>
<polygon fill="none" stroke="black" stroke-dasharray="1,5" points="234,-338 234,-428 1111,-428 1111,-338 234,-338"/>
<text text-anchor="start" x="637" y="-413.8" font-family="Helvetica,sans-Serif" font-size="14.00"> </text>
<text text-anchor="start" x="641" y="-413.8" font-family="Helvetica,sans-Serif" font-weight="bold" font-size="14.00">Imported</text>
<text text-anchor="start" x="704" y="-413.8" font-family="Helvetica,sans-Serif" font-size="14.00"> </text>
</g>
<!-- P0 -->
<g id="node1" class="node">
<title>P0</title>
<path fill="orange" stroke="black" d="M28.5,-436.5C28.5,-436.5 205.5,-436.5 205.5,-436.5 211.5,-436.5 217.5,-442.5 217.5,-448.5 217.5,-448.5 217.5,-465.5 217.5,-465.5 217.5,-471.5 211.5,-477.5 205.5,-477.5 205.5,-477.5 28.5,-477.5 28.5,-477.5 22.5,-477.5 16.5,-471.5 16.5,-465.5 16.5,-465.5 16.5,-448.5 16.5,-448.5 16.5,-442.5 22.5,-436.5 28.5,-436.5"/>
<text text-anchor="start" x="30.5" y="-468.5" font-family="Helvetica,sans-Serif" font-weight="bold" font-size="10.00">Pass.Builtin.Code.FrameDataUpload</text>
<polyline fill="none" stroke="black" points="16.5,-462.5 217.5,-462.5"/>
<text text-anchor="start" x="92" y="-452.5" font-family="Helvetica,sans-Serif" font-size="10.00">★ Refs: 1</text>
<text text-anchor="start" x="98" y="-441.5" font-family="Helvetica,sans-Serif" font-size="10.00"> Index: 0</text>
</g>
<!-- R5_1 -->
<g id="node11" class="node">
<title>R5_1</title>
<polygon fill="skyblue" stroke="black" points="94,-346.5 94,-396.5 192,-396.5 192,-346.5 94,-346.5"/>
<text text-anchor="start" x="116.5" y="-387.5" font-family="Helvetica,sans-Serif" font-weight="bold" font-size="10.00">FrameData</text>
<text text-anchor="start" x="108" y="-377.5" font-family="Helvetica,sans-Serif" font-size="10.00">size : 304 bytes</text>
<polyline fill="none" stroke="black" points="94,-372.5 192,-372.5"/>
<text text-anchor="start" x="125.5" y="-362.5" font-family="Helvetica,sans-Serif" font-size="10.00">Index: 5</text>
<text text-anchor="start" x="126" y="-351.5" font-family="Helvetica,sans-Serif" font-size="10.00">Refs : 1</text>
</g>
<!-- P0&#45;&gt;R5_1 -->
<g id="edge1" class="edge">
<title>P0&#45;&gt;R5_1</title>
<path fill="none" stroke="orangered" d="M123.03,-436.63C125.76,-427.88 129.06,-417.27 132.19,-407.22"/>
<polygon fill="orangered" stroke="orangered" points="135.53,-408.27 135.16,-397.68 128.85,-406.18 135.53,-408.27"/>
</g>
<!-- P1 -->
<g id="node2" class="node">
<title>P1</title>
<path fill="orange" stroke="black" d="M1139.5,-436.5C1139.5,-436.5 1344.5,-436.5 1344.5,-436.5 1350.5,-436.5 1356.5,-442.5 1356.5,-448.5 1356.5,-448.5 1356.5,-465.5 1356.5,-465.5 1356.5,-471.5 1350.5,-477.5 1344.5,-477.5 1344.5,-477.5 1139.5,-477.5 1139.5,-477.5 1133.5,-477.5 1127.5,-471.5 1127.5,-465.5 1127.5,-465.5 1127.5,-448.5 1127.5,-448.5 1127.5,-442.5 1133.5,-436.5 1139.5,-436.5"/>
<text text-anchor="start" x="1141.5" y="-468.5" font-family="Helvetica,sans-Serif" font-weight="bold" font-size="10.00">Pass.Builtin.Code.SceneLightsDataUpload</text>
<polyline fill="none" stroke="black" points="1127.5,-462.5 1356.5,-462.5"/>
<text text-anchor="start" x="1217" y="-452.5" font-family="Helvetica,sans-Serif" font-size="10.00">★ Refs: 1</text>
<text text-anchor="start" x="1223" y="-441.5" font-family="Helvetica,sans-Serif" font-size="10.00"> Index: 1</text>
</g>
<!-- R6_1 -->
<g id="node12" class="node">
<title>R6_1</title>
<polygon fill="skyblue" stroke="black" points="1157.5,-346.5 1157.5,-396.5 1266.5,-396.5 1266.5,-346.5 1157.5,-346.5"/>
<text text-anchor="start" x="1171.5" y="-387.5" font-family="Helvetica,sans-Serif" font-weight="bold" font-size="10.00">SceneLightsData</text>
<text text-anchor="start" x="1171.5" y="-377.5" font-family="Helvetica,sans-Serif" font-size="10.00">size : 10256 bytes</text>
<polyline fill="none" stroke="black" points="1157.5,-372.5 1266.5,-372.5"/>
<text text-anchor="start" x="1194.5" y="-362.5" font-family="Helvetica,sans-Serif" font-size="10.00">Index: 6</text>
<text text-anchor="start" x="1195" y="-351.5" font-family="Helvetica,sans-Serif" font-size="10.00">Refs : 1</text>
</g>
<!-- P1&#45;&gt;R6_1 -->
<g id="edge2" class="edge">
<title>P1&#45;&gt;R6_1</title>
<path fill="none" stroke="orangered" d="M1235.04,-436.63C1231.86,-427.79 1228,-417.04 1224.36,-406.89"/>
<polygon fill="orangered" stroke="orangered" points="1227.71,-405.88 1221.04,-397.66 1221.13,-408.25 1227.71,-405.88"/>
</g>
<!-- P2 -->
<g id="node3" class="node">
<title>P2</title>
<path fill="#ee2c2c" stroke="black" d="M1484.5,-436.5C1484.5,-436.5 1625.5,-436.5 1625.5,-436.5 1631.5,-436.5 1637.5,-442.5 1637.5,-448.5 1637.5,-448.5 1637.5,-465.5 1637.5,-465.5 1637.5,-471.5 1631.5,-477.5 1625.5,-477.5 1625.5,-477.5 1484.5,-477.5 1484.5,-477.5 1478.5,-477.5 1472.5,-471.5 1472.5,-465.5 1472.5,-465.5 1472.5,-448.5 1472.5,-448.5 1472.5,-442.5 1478.5,-436.5 1484.5,-436.5"/>
<text text-anchor="start" x="1486.5" y="-468.5" font-family="Helvetica,sans-Serif" font-weight="bold" font-size="10.00">Pass.Builtin.RenderShadows</text>
<polyline fill="none" stroke="black" points="1472.5,-462.5 1637.5,-462.5"/>
<text text-anchor="start" x="1530" y="-452.5" font-family="Helvetica,sans-Serif" font-size="10.00">★ Refs: 2</text>
<text text-anchor="start" x="1536" y="-441.5" font-family="Helvetica,sans-Serif" font-size="10.00"> Index: 2</text>
</g>
<!-- R7_1 -->
<g id="node13" class="node">
<title>R7_1</title>
<polygon fill="skyblue" stroke="black" points="1381,-346.5 1381,-396.5 1581,-396.5 1581,-346.5 1381,-346.5"/>
<text text-anchor="start" x="1451" y="-387.5" font-family="Helvetica,sans-Serif" font-weight="bold" font-size="10.00">ShadowMap</text>
<text text-anchor="start" x="1395" y="-377.5" font-family="Helvetica,sans-Serif" font-size="10.00">(4096, 4096) &#45; BGRA8_UNORM [Depth]</text>
<polyline fill="none" stroke="black" points="1381,-372.5 1581,-372.5"/>
<text text-anchor="start" x="1463.5" y="-362.5" font-family="Helvetica,sans-Serif" font-size="10.00">Index: 7</text>
<text text-anchor="start" x="1464" y="-351.5" font-family="Helvetica,sans-Serif" font-size="10.00">Refs : 1</text>
</g>
<!-- P2&#45;&gt;R7_1 -->
<g id="edge3" class="edge">
<title>P2&#45;&gt;R7_1</title>
<path fill="none" stroke="orangered" d="M1537.84,-436.63C1529.41,-427.13 1519.04,-415.43 1509.48,-404.64"/>
<polygon fill="orangered" stroke="orangered" points="1512.29,-402.53 1503.04,-397.37 1507.05,-407.17 1512.29,-402.53"/>
</g>
<!-- R8_1 -->
<g id="node14" class="node">
<title>R8_1</title>
<polygon fill="skyblue" stroke="black" points="1599.5,-346.5 1599.5,-396.5 1712.5,-396.5 1712.5,-346.5 1599.5,-346.5"/>
<text text-anchor="start" x="1613.5" y="-387.5" font-family="Helvetica,sans-Serif" font-weight="bold" font-size="10.00">LightSpaceMatrix</text>
<text text-anchor="start" x="1623.5" y="-377.5" font-family="Helvetica,sans-Serif" font-size="10.00">size : 64 bytes</text>
<polyline fill="none" stroke="black" points="1599.5,-372.5 1712.5,-372.5"/>
<text text-anchor="start" x="1638.5" y="-362.5" font-family="Helvetica,sans-Serif" font-size="10.00">Index: 8</text>
<text text-anchor="start" x="1639" y="-351.5" font-family="Helvetica,sans-Serif" font-size="10.00">Refs : 1</text>
</g>
<!-- P2&#45;&gt;R8_1 -->
<g id="edge4" class="edge">
<title>P2&#45;&gt;R8_1</title>
<path fill="none" stroke="orangered" d="M1579.16,-436.8C1582.81,-433.86 1586.51,-430.86 1590,-428 1599.47,-420.23 1609.64,-411.75 1619.08,-403.82"/>
<polygon fill="orangered" stroke="orangered" points="1621.31,-406.51 1626.71,-397.39 1616.8,-401.16 1621.31,-406.51"/>
</g>
<!-- P3 -->
<g id="node4" class="node">
<title>P3</title>
<path fill="#ee2c2c" stroke="black" d="M810,-268.5C810,-268.5 932,-268.5 932,-268.5 938,-268.5 944,-274.5 944,-280.5 944,-280.5 944,-297.5 944,-297.5 944,-303.5 938,-309.5 932,-309.5 932,-309.5 810,-309.5 810,-309.5 804,-309.5 798,-303.5 798,-297.5 798,-297.5 798,-280.5 798,-280.5 798,-274.5 804,-268.5 810,-268.5"/>
<text text-anchor="start" x="812" y="-300.5" font-family="Helvetica,sans-Serif" font-weight="bold" font-size="10.00">Pass.Builtin.PBRLighting</text>
<polyline fill="none" stroke="black" points="798,-294.5 944,-294.5"/>
<text text-anchor="start" x="846" y="-284.5" font-family="Helvetica,sans-Serif" font-size="10.00">★ Refs: 2</text>
<text text-anchor="start" x="852" y="-273.5" font-family="Helvetica,sans-Serif" font-size="10.00"> Index: 3</text>
</g>
<!-- R9_1 -->
<g id="node15" class="node">
<title>R9_1</title>
<polygon fill="skyblue" stroke="black" points="693.5,-181.5 693.5,-231.5 850.5,-231.5 850.5,-181.5 693.5,-181.5"/>
<text text-anchor="start" x="746.5" y="-222.5" font-family="Helvetica,sans-Serif" font-weight="bold" font-size="10.00">SceneHDR</text>
<text text-anchor="start" x="707.5" y="-212.5" font-family="Helvetica,sans-Serif" font-size="10.00">(4096, 4096) &#45; RGBA32F [2D]</text>
<polyline fill="none" stroke="black" points="693.5,-207.5 850.5,-207.5"/>
<text text-anchor="start" x="754.5" y="-197.5" font-family="Helvetica,sans-Serif" font-size="10.00">Index: 9</text>
<text text-anchor="start" x="755" y="-186.5" font-family="Helvetica,sans-Serif" font-size="10.00">Refs : 1</text>
</g>
<!-- P3&#45;&gt;R9_1 -->
<g id="edge5" class="edge">
<title>P3&#45;&gt;R9_1</title>
<path fill="none" stroke="orangered" d="M847.03,-268.51C835.98,-259.53 822.59,-248.64 810.2,-238.56"/>
<polygon fill="orangered" stroke="orangered" points="812.54,-235.96 802.58,-232.36 808.13,-241.39 812.54,-235.96"/>
</g>
<!-- R10_1 -->
<g id="node16" class="node">
<title>R10_1</title>
<polygon fill="skyblue" stroke="black" points="869,-181.5 869,-231.5 1069,-231.5 1069,-181.5 869,-181.5"/>
<text text-anchor="start" x="940" y="-222.5" font-family="Helvetica,sans-Serif" font-weight="bold" font-size="10.00">SceneDepth</text>
<text text-anchor="start" x="883" y="-212.5" font-family="Helvetica,sans-Serif" font-size="10.00">(4096, 4096) &#45; BGRA8_UNORM [Depth]</text>
<polyline fill="none" stroke="black" points="869,-207.5 1069,-207.5"/>
<text text-anchor="start" x="949" y="-197.5" font-family="Helvetica,sans-Serif" font-size="10.00">Index: 10</text>
<text text-anchor="start" x="952" y="-186.5" font-family="Helvetica,sans-Serif" font-size="10.00">Refs : 1</text>
</g>
<!-- P3&#45;&gt;R10_1 -->
<g id="edge6" class="edge">
<title>P3&#45;&gt;R10_1</title>
<path fill="none" stroke="orangered" d="M894.72,-268.51C905.66,-259.53 918.92,-248.64 931.18,-238.56"/>
<polygon fill="orangered" stroke="orangered" points="933.22,-241.42 938.73,-232.37 928.78,-236.01 933.22,-241.42"/>
</g>
<!-- P4 -->
<g id="node5" class="node">
<title>P4</title>
<path fill="orange" stroke="black" d="M824.5,-103.5C824.5,-103.5 915.5,-103.5 915.5,-103.5 921.5,-103.5 927.5,-109.5 927.5,-115.5 927.5,-115.5 927.5,-132.5 927.5,-132.5 927.5,-138.5 921.5,-144.5 915.5,-144.5 915.5,-144.5 824.5,-144.5 824.5,-144.5 818.5,-144.5 812.5,-138.5 812.5,-132.5 812.5,-132.5 812.5,-115.5 812.5,-115.5 812.5,-109.5 818.5,-103.5 824.5,-103.5"/>
<text text-anchor="start" x="826.5" y="-135.5" font-family="Helvetica,sans-Serif" font-weight="bold" font-size="10.00">Final Composition</text>
<polyline fill="none" stroke="black" points="812.5,-129.5 927.5,-129.5"/>
<text text-anchor="start" x="845" y="-119.5" font-family="Helvetica,sans-Serif" font-size="10.00">★ Refs: 2</text>
<text text-anchor="start" x="851" y="-108.5" font-family="Helvetica,sans-Serif" font-size="10.00"> Index: 4</text>
</g>
<!-- R11_1 -->
<g id="node17" class="node">
<title>R11_1</title>
<polygon fill="skyblue" stroke="black" points="676,-16.5 676,-66.5 858,-66.5 858,-16.5 676,-16.5"/>
<text text-anchor="start" x="732" y="-57.5" font-family="Helvetica,sans-Serif" font-weight="bold" font-size="10.00">Present Image</text>
<text text-anchor="start" x="690" y="-47.5" font-family="Helvetica,sans-Serif" font-size="10.00">(1280, 720) &#45; BGRA8_UNORM [2D]</text>
<polyline fill="none" stroke="black" points="676,-42.5 858,-42.5"/>
<text text-anchor="start" x="747" y="-32.5" font-family="Helvetica,sans-Serif" font-size="10.00">Index: 11</text>
<text text-anchor="start" x="750" y="-21.5" font-family="Helvetica,sans-Serif" font-size="10.00">Refs : 0</text>
</g>
<!-- P4&#45;&gt;R11_1 -->
<g id="edge7" class="edge">
<title>P4&#45;&gt;R11_1</title>
<path fill="none" stroke="orangered" d="M845.07,-103.51C833.46,-94.44 819.37,-83.43 806.37,-73.27"/>
<polygon fill="orangered" stroke="orangered" points="808.82,-70.74 798.78,-67.34 804.51,-76.26 808.82,-70.74"/>
</g>
<!-- R12_1 -->
<g id="node18" class="node">
<title>R12_1</title>
<polygon fill="skyblue" stroke="black" points="876.5,-16.5 876.5,-66.5 1071.5,-66.5 1071.5,-16.5 876.5,-16.5"/>
<text text-anchor="start" x="940" y="-57.5" font-family="Helvetica,sans-Serif" font-weight="bold" font-size="10.00">Depth Texture</text>
<text text-anchor="start" x="890.5" y="-47.5" font-family="Helvetica,sans-Serif" font-size="10.00">(1280, 720) &#45; BGRA8_UNORM [Depth]</text>
<polyline fill="none" stroke="black" points="876.5,-42.5 1071.5,-42.5"/>
<text text-anchor="start" x="954" y="-32.5" font-family="Helvetica,sans-Serif" font-size="10.00">Index: 12</text>
<text text-anchor="start" x="957" y="-21.5" font-family="Helvetica,sans-Serif" font-size="10.00">Refs : 0</text>
</g>
<!-- P4&#45;&gt;R12_1 -->
<g id="edge8" class="edge">
<title>P4&#45;&gt;R12_1</title>
<path fill="none" stroke="orangered" d="M895.18,-103.51C906.9,-94.44 921.13,-83.43 934.25,-73.27"/>
<polygon fill="orangered" stroke="orangered" points="936.15,-76.22 941.92,-67.33 931.87,-70.69 936.15,-76.22"/>
</g>
<!-- R0_1 -->
<g id="node6" class="node">
<title>R0_1</title>
<polygon fill="lightsteelblue" stroke="black" points="967.5,-346.5 967.5,-396.5 1102.5,-396.5 1102.5,-346.5 967.5,-346.5"/>
<text text-anchor="start" x="1015.5" y="-387.5" font-family="Helvetica,sans-Serif" font-weight="bold" font-size="10.00">BrdfLUT</text>
<text text-anchor="start" x="981.5" y="-377.5" font-family="Helvetica,sans-Serif" font-size="10.00">(400, 400) &#45; RGBA8 [2D]</text>
<polyline fill="none" stroke="black" points="967.5,-372.5 1102.5,-372.5"/>
<text text-anchor="start" x="1017.5" y="-362.5" font-family="Helvetica,sans-Serif" font-size="10.00">Index: 0</text>
<text text-anchor="start" x="1018" y="-351.5" font-family="Helvetica,sans-Serif" font-size="10.00">Refs : 1</text>
</g>
<!-- R0_1&#45;&gt;P3 -->
<g id="edge9" class="edge">
<title>R0_1&#45;&gt;P3</title>
<path fill="none" stroke="#9acd32" d="M986.24,-346.57C965.56,-336.42 941.49,-324.6 920.71,-314.4"/>
<polygon fill="#9acd32" stroke="#9acd32" points="922.37,-311.32 911.85,-310.05 919.28,-317.6 922.37,-311.32"/>
</g>
<!-- R1_1 -->
<g id="node7" class="node">
<title>R1_1</title>
<polygon fill="lightsteelblue" stroke="black" points="814.5,-346.5 814.5,-396.5 949.5,-396.5 949.5,-346.5 814.5,-346.5"/>
<text text-anchor="start" x="850" y="-387.5" font-family="Helvetica,sans-Serif" font-weight="bold" font-size="10.00">NoiseTexture</text>
<text text-anchor="start" x="828.5" y="-377.5" font-family="Helvetica,sans-Serif" font-size="10.00">(128, 128) &#45; RGBA8 [2D]</text>
<polyline fill="none" stroke="black" points="814.5,-372.5 949.5,-372.5"/>
<text text-anchor="start" x="864.5" y="-362.5" font-family="Helvetica,sans-Serif" font-size="10.00">Index: 1</text>
<text text-anchor="start" x="865" y="-351.5" font-family="Helvetica,sans-Serif" font-size="10.00">Refs : 0</text>
</g>
<!-- R2_1 -->
<g id="node8" class="node">
<title>R2_1</title>
<polygon fill="lightsteelblue" stroke="black" points="620,-346.5 620,-396.5 796,-396.5 796,-346.5 620,-346.5"/>
<text text-anchor="start" x="667.5" y="-387.5" font-family="Helvetica,sans-Serif" font-weight="bold" font-size="10.00">EnvironmentMap</text>
<text text-anchor="start" x="634" y="-377.5" font-family="Helvetica,sans-Serif" font-size="10.00">(512, 512) &#45; RGBA32F [CubeMap]</text>
<polyline fill="none" stroke="black" points="620,-372.5 796,-372.5"/>
<text text-anchor="start" x="690.5" y="-362.5" font-family="Helvetica,sans-Serif" font-size="10.00">Index: 2</text>
<text text-anchor="start" x="691" y="-351.5" font-family="Helvetica,sans-Serif" font-size="10.00">Refs : 1</text>
</g>
<!-- R2_1&#45;&gt;P3 -->
<g id="edge10" class="edge">
<title>R2_1&#45;&gt;P3</title>
<path fill="none" stroke="#9acd32" d="M756.46,-346.57C777.02,-336.42 800.94,-324.6 821.59,-314.4"/>
<polygon fill="#9acd32" stroke="#9acd32" points="822.98,-317.62 830.39,-310.05 819.88,-311.34 822.98,-317.62"/>
</g>
<!-- R3_1 -->
<g id="node9" class="node">
<title>R3_1</title>
<polygon fill="lightsteelblue" stroke="black" points="436.5,-346.5 436.5,-396.5 601.5,-396.5 601.5,-346.5 436.5,-346.5"/>
<text text-anchor="start" x="484" y="-387.5" font-family="Helvetica,sans-Serif" font-weight="bold" font-size="10.00">IrradianceMap</text>
<text text-anchor="start" x="450.5" y="-377.5" font-family="Helvetica,sans-Serif" font-size="10.00">(32, 32) &#45; RGBA32F [CubeMap]</text>
<polyline fill="none" stroke="black" points="436.5,-372.5 601.5,-372.5"/>
<text text-anchor="start" x="501.5" y="-362.5" font-family="Helvetica,sans-Serif" font-size="10.00">Index: 3</text>
<text text-anchor="start" x="502" y="-351.5" font-family="Helvetica,sans-Serif" font-size="10.00">Refs : 1</text>
</g>
<!-- R3_1&#45;&gt;P3 -->
<g id="edge11" class="edge">
<title>R3_1&#45;&gt;P3</title>
<path fill="none" stroke="#9acd32" d="M582.44,-346.63C591.94,-343.49 601.67,-340.49 611,-338 668.93,-322.52 735.43,-310.34 786.68,-302.13"/>
<polygon fill="#9acd32" stroke="#9acd32" points="787.21,-305.59 796.54,-300.57 786.11,-298.67 787.21,-305.59"/>
</g>
<!-- R4_1 -->
<g id="node10" class="node">
<title>R4_1</title>
<polygon fill="lightsteelblue" stroke="black" points="242,-346.5 242,-396.5 418,-396.5 418,-346.5 242,-346.5"/>
<text text-anchor="start" x="293" y="-387.5" font-family="Helvetica,sans-Serif" font-weight="bold" font-size="10.00">PreFilteredMap</text>
<text text-anchor="start" x="256" y="-377.5" font-family="Helvetica,sans-Serif" font-size="10.00">(128, 128) &#45; RGBA32F [CubeMap]</text>
<polyline fill="none" stroke="black" points="242,-372.5 418,-372.5"/>
<text text-anchor="start" x="312.5" y="-362.5" font-family="Helvetica,sans-Serif" font-size="10.00">Index: 4</text>
<text text-anchor="start" x="313" y="-351.5" font-family="Helvetica,sans-Serif" font-size="10.00">Refs : 1</text>
</g>
<!-- R4_1&#45;&gt;P3 -->
<g id="edge12" class="edge">
<title>R4_1&#45;&gt;P3</title>
<path fill="none" stroke="#9acd32" d="M395.21,-346.53C405.73,-343.27 416.59,-340.28 427,-338 550.66,-310.93 697.18,-298.87 787.11,-293.68"/>
<polygon fill="#9acd32" stroke="#9acd32" points="787.03,-297.19 796.82,-293.13 786.64,-290.2 787.03,-297.19"/>
</g>
<!-- R5_1&#45;&gt;P3 -->
<g id="edge13" class="edge">
<title>R5_1&#45;&gt;P3</title>
<path fill="none" stroke="#9acd32" d="M191.96,-349.46C204.18,-344.98 217.4,-340.77 230,-338 333.78,-315.22 637.8,-299.77 786.77,-293.35"/>
<polygon fill="#9acd32" stroke="#9acd32" points="786.74,-296.86 796.58,-292.93 786.44,-289.86 786.74,-296.86"/>
</g>
<!-- R6_1&#45;&gt;P3 -->
<g id="edge14" class="edge">
<title>R6_1&#45;&gt;P3</title>
<path fill="none" stroke="#9acd32" d="M1157.74,-350.95C1143.91,-346.34 1128.99,-341.7 1115,-338 1062.36,-324.06 1002.35,-312.21 955.02,-303.77"/>
<polygon fill="#9acd32" stroke="#9acd32" points="955.84,-300.36 945.38,-302.07 954.62,-307.25 955.84,-300.36"/>
</g>
<!-- R7_1&#45;&gt;P3 -->
<g id="edge15" class="edge">
<title>R7_1&#45;&gt;P3</title>
<path fill="none" stroke="#9acd32" d="M1405.55,-346.54C1393.42,-343.28 1380.93,-340.29 1369,-338 1225.19,-310.45 1054.84,-298.37 955.25,-293.33"/>
<polygon fill="#9acd32" stroke="#9acd32" points="955.44,-289.84 945.28,-292.84 955.09,-296.83 955.44,-289.84"/>
</g>
<!-- R8_1&#45;&gt;P3 -->
<g id="edge16" class="edge">
<title>R8_1&#45;&gt;P3</title>
<path fill="none" stroke="#9acd32" d="M1613.64,-346.65C1605.97,-343.21 1597.9,-340.12 1590,-338 1472.52,-306.48 1118.66,-295.15 955.31,-291.52"/>
<polygon fill="#9acd32" stroke="#9acd32" points="955.47,-288.03 945.4,-291.31 955.32,-295.02 955.47,-288.03"/>
</g>
<!-- R9_1&#45;&gt;P4 -->
<g id="edge17" class="edge">
<title>R9_1&#45;&gt;P4</title>
<path fill="none" stroke="#9acd32" d="M801.14,-181.57C812.65,-172.11 825.92,-161.21 837.72,-151.52"/>
<polygon fill="#9acd32" stroke="#9acd32" points="839.73,-154.4 845.23,-145.34 835.28,-148.99 839.73,-154.4"/>
</g>
<!-- R10_1&#45;&gt;P4 -->
<g id="edge18" class="edge">
<title>R10_1&#45;&gt;P4</title>
<path fill="none" stroke="#9acd32" d="M939.56,-181.57C927.94,-172.11 914.53,-161.21 902.61,-151.52"/>
<polygon fill="#9acd32" stroke="#9acd32" points="904.98,-148.93 895.01,-145.34 900.56,-154.36 904.98,-148.93"/>
</g>
</g>
</svg>
