<?xml version="1.0" encoding="UTF-8" standalone="no"?>
<!DOCTYPE svg PUBLIC "-//W3C//DTD SVG 1.1//EN"
 "http://www.w3.org/Graphics/SVG/1.1/DTD/svg11.dtd">
<!-- Generated by graphviz version 7.0.4 (20221203.1631)
 -->
<!-- Title: FrameGraph Pages: 1 -->
<svg width="1737pt" height="667pt"
 viewBox="0.00 0.00 1737.00 667.00" xmlns="http://www.w3.org/2000/svg" xmlns:xlink="http://www.w3.org/1999/xlink">
<g id="graph0" class="graph" transform="scale(1 1) rotate(0) translate(4 663)">
<title>FrameGraph</title>
<polygon fill="white" stroke="none" points="-4,4 -4,-663 1733,-663 1733,4 -4,4"/>
<g id="clust25" class="cluster">
<title>cluster_3</title>
</g>
<g id="clust24" class="cluster">
<title>cluster_2</title>
</g>
<g id="clust27" class="cluster">
<title>cluster_5</title>
</g>
<g id="clust26" class="cluster">
<title>cluster_4</title>
</g>
<g id="clust22" class="cluster">
<title>cluster_0</title>
</g>
<g id="clust23" class="cluster">
<title>cluster_1</title>
</g>
<g id="clust28" class="cluster">
<title>cluster_imported_resources</title>
<polygon fill="none" stroke="black" stroke-dasharray="1,5" points="234,-503 234,-593 1111,-593 1111,-503 234,-503"/>
<text text-anchor="start" x="637" y="-578.8" font-family="Helvetica,sans-Serif" font-size="14.00"> </text>
<text text-anchor="start" x="641" y="-578.8" font-family="Helvetica,sans-Serif" font-weight="bold" font-size="14.00">Imported</text>
<text text-anchor="start" x="704" y="-578.8" font-family="Helvetica,sans-Serif" font-size="14.00"> </text>
</g>
<!-- P0 -->
<g id="node1" class="node">
<title>P0</title>
<path fill="orange" stroke="black" d="M28.5,-601.5C28.5,-601.5 205.5,-601.5 205.5,-601.5 211.5,-601.5 217.5,-607.5 217.5,-613.5 217.5,-613.5 217.5,-630.5 217.5,-630.5 217.5,-636.5 211.5,-642.5 205.5,-642.5 205.5,-642.5 28.5,-642.5 28.5,-642.5 22.5,-642.5 16.5,-636.5 16.5,-630.5 16.5,-630.5 16.5,-613.5 16.5,-613.5 16.5,-607.5 22.5,-601.5 28.5,-601.5"/>
<text text-anchor="start" x="30.5" y="-633.5" font-family="Helvetica,sans-Serif" font-weight="bold" font-size="10.00">Pass.Builtin.Code.FrameDataUpload</text>
<polyline fill="none" stroke="black" points="16.5,-627.5 217.5,-627.5"/>
<text text-anchor="start" x="92" y="-617.5" font-family="Helvetica,sans-Serif" font-size="10.00">★ Refs: 1</text>
<text text-anchor="start" x="98" y="-606.5" font-family="Helvetica,sans-Serif" font-size="10.00"> Index: 0</text>
</g>
<!-- R5_1 -->
<g id="node12" class="node">
<title>R5_1</title>
<polygon fill="skyblue" stroke="black" points="120,-511.5 120,-561.5 218,-561.5 218,-511.5 120,-511.5"/>
<text text-anchor="start" x="142.5" y="-552.5" font-family="Helvetica,sans-Serif" font-weight="bold" font-size="10.00">FrameData</text>
<text text-anchor="start" x="134" y="-542.5" font-family="Helvetica,sans-Serif" font-size="10.00">size : 304 bytes</text>
<polyline fill="none" stroke="black" points="120,-537.5 218,-537.5"/>
<text text-anchor="start" x="151.5" y="-527.5" font-family="Helvetica,sans-Serif" font-size="10.00">Index: 5</text>
<text text-anchor="start" x="152" y="-516.5" font-family="Helvetica,sans-Serif" font-size="10.00">Refs : 2</text>
</g>
<!-- P0&#45;&gt;R5_1 -->
<g id="edge1" class="edge">
<title>P0&#45;&gt;R5_1</title>
<path fill="none" stroke="orangered" d="M129.06,-601.63C134.74,-592.51 141.69,-581.35 148.19,-570.92"/>
<polygon fill="orangered" stroke="orangered" points="151.11,-572.86 153.42,-562.52 145.16,-569.16 151.11,-572.86"/>
</g>
<!-- P1 -->
<g id="node2" class="node">
<title>P1</title>
<path fill="orange" stroke="black" d="M1139.5,-601.5C1139.5,-601.5 1344.5,-601.5 1344.5,-601.5 1350.5,-601.5 1356.5,-607.5 1356.5,-613.5 1356.5,-613.5 1356.5,-630.5 1356.5,-630.5 1356.5,-636.5 1350.5,-642.5 1344.5,-642.5 1344.5,-642.5 1139.5,-642.5 1139.5,-642.5 1133.5,-642.5 1127.5,-636.5 1127.5,-630.5 1127.5,-630.5 1127.5,-613.5 1127.5,-613.5 1127.5,-607.5 1133.5,-601.5 1139.5,-601.5"/>
<text text-anchor="start" x="1141.5" y="-633.5" font-family="Helvetica,sans-Serif" font-weight="bold" font-size="10.00">Pass.Builtin.Code.SceneLightsDataUpload</text>
<polyline fill="none" stroke="black" points="1127.5,-627.5 1356.5,-627.5"/>
<text text-anchor="start" x="1217" y="-617.5" font-family="Helvetica,sans-Serif" font-size="10.00">★ Refs: 1</text>
<text text-anchor="start" x="1223" y="-606.5" font-family="Helvetica,sans-Serif" font-size="10.00"> Index: 1</text>
</g>
<!-- R6_1 -->
<g id="node13" class="node">
<title>R6_1</title>
<polygon fill="skyblue" stroke="black" points="1157.5,-511.5 1157.5,-561.5 1266.5,-561.5 1266.5,-511.5 1157.5,-511.5"/>
<text text-anchor="start" x="1171.5" y="-552.5" font-family="Helvetica,sans-Serif" font-weight="bold" font-size="10.00">SceneLightsData</text>
<text text-anchor="start" x="1171.5" y="-542.5" font-family="Helvetica,sans-Serif" font-size="10.00">size : 10256 bytes</text>
<polyline fill="none" stroke="black" points="1157.5,-537.5 1266.5,-537.5"/>
<text text-anchor="start" x="1194.5" y="-527.5" font-family="Helvetica,sans-Serif" font-size="10.00">Index: 6</text>
<text text-anchor="start" x="1195" y="-516.5" font-family="Helvetica,sans-Serif" font-size="10.00">Refs : 1</text>
</g>
<!-- P1&#45;&gt;R6_1 -->
<g id="edge2" class="edge">
<title>P1&#45;&gt;R6_1</title>
<path fill="none" stroke="orangered" d="M1235.04,-601.63C1231.86,-592.79 1228,-582.04 1224.36,-571.89"/>
<polygon fill="orangered" stroke="orangered" points="1227.71,-570.88 1221.04,-562.66 1221.13,-573.25 1227.71,-570.88"/>
</g>
<!-- P2 -->
<g id="node3" class="node">
<title>P2</title>
<path fill="#ee2c2c" stroke="black" d="M1484.5,-601.5C1484.5,-601.5 1625.5,-601.5 1625.5,-601.5 1631.5,-601.5 1637.5,-607.5 1637.5,-613.5 1637.5,-613.5 1637.5,-630.5 1637.5,-630.5 1637.5,-636.5 1631.5,-642.5 1625.5,-642.5 1625.5,-642.5 1484.5,-642.5 1484.5,-642.5 1478.5,-642.5 1472.5,-636.5 1472.5,-630.5 1472.5,-630.5 1472.5,-613.5 1472.5,-613.5 1472.5,-607.5 1478.5,-601.5 1484.5,-601.5"/>
<text text-anchor="start" x="1486.5" y="-633.5" font-family="Helvetica,sans-Serif" font-weight="bold" font-size="10.00">Pass.Builtin.RenderShadows</text>
<polyline fill="none" stroke="black" points="1472.5,-627.5 1637.5,-627.5"/>
<text text-anchor="start" x="1530" y="-617.5" font-family="Helvetica,sans-Serif" font-size="10.00">★ Refs: 2</text>
<text text-anchor="start" x="1536" y="-606.5" font-family="Helvetica,sans-Serif" font-size="10.00"> Index: 2</text>
</g>
<!-- R7_1 -->
<g id="node14" class="node">
<title>R7_1</title>
<polygon fill="skyblue" stroke="black" points="1381,-511.5 1381,-561.5 1581,-561.5 1581,-511.5 1381,-511.5"/>
<text text-anchor="start" x="1451" y="-552.5" font-family="Helvetica,sans-Serif" font-weight="bold" font-size="10.00">ShadowMap</text>
<text text-anchor="start" x="1395" y="-542.5" font-family="Helvetica,sans-Serif" font-size="10.00">(4096, 4096) &#45; BGRA8_UNORM [Depth]</text>
<polyline fill="none" stroke="black" points="1381,-537.5 1581,-537.5"/>
<text text-anchor="start" x="1463.5" y="-527.5" font-family="Helvetica,sans-Serif" font-size="10.00">Index: 7</text>
<text text-anchor="start" x="1464" y="-516.5" font-family="Helvetica,sans-Serif" font-size="10.00">Refs : 1</text>
</g>
<!-- P2&#45;&gt;R7_1 -->
<g id="edge3" class="edge">
<title>P2&#45;&gt;R7_1</title>
<path fill="none" stroke="orangered" d="M1537.84,-601.63C1529.41,-592.13 1519.04,-580.43 1509.48,-569.64"/>
<polygon fill="orangered" stroke="orangered" points="1512.29,-567.53 1503.04,-562.37 1507.05,-572.17 1512.29,-567.53"/>
</g>
<!-- R8_1 -->
<g id="node15" class="node">
<title>R8_1</title>
<polygon fill="skyblue" stroke="black" points="1599.5,-511.5 1599.5,-561.5 1712.5,-561.5 1712.5,-511.5 1599.5,-511.5"/>
<text text-anchor="start" x="1613.5" y="-552.5" font-family="Helvetica,sans-Serif" font-weight="bold" font-size="10.00">LightSpaceMatrix</text>
<text text-anchor="start" x="1623.5" y="-542.5" font-family="Helvetica,sans-Serif" font-size="10.00">size : 64 bytes</text>
<polyline fill="none" stroke="black" points="1599.5,-537.5 1712.5,-537.5"/>
<text text-anchor="start" x="1638.5" y="-527.5" font-family="Helvetica,sans-Serif" font-size="10.00">Index: 8</text>
<text text-anchor="start" x="1639" y="-516.5" font-family="Helvetica,sans-Serif" font-size="10.00">Refs : 1</text>
</g>
<!-- P2&#45;&gt;R8_1 -->
<g id="edge4" class="edge">
<title>P2&#45;&gt;R8_1</title>
<path fill="none" stroke="orangered" d="M1579.16,-601.8C1582.81,-598.86 1586.51,-595.86 1590,-593 1599.47,-585.23 1609.64,-576.75 1619.08,-568.82"/>
<polygon fill="orangered" stroke="orangered" points="1621.31,-571.51 1626.71,-562.39 1616.8,-566.16 1621.31,-571.51"/>
</g>
<!-- P3 -->
<g id="node4" class="node">
<title>P3</title>
<path fill="#ee2c2c" stroke="black" d="M647,-433.5C647,-433.5 769,-433.5 769,-433.5 775,-433.5 781,-439.5 781,-445.5 781,-445.5 781,-462.5 781,-462.5 781,-468.5 775,-474.5 769,-474.5 769,-474.5 647,-474.5 647,-474.5 641,-474.5 635,-468.5 635,-462.5 635,-462.5 635,-445.5 635,-445.5 635,-439.5 641,-433.5 647,-433.5"/>
<text text-anchor="start" x="649" y="-465.5" font-family="Helvetica,sans-Serif" font-weight="bold" font-size="10.00">Pass.Builtin.PBRLighting</text>
<polyline fill="none" stroke="black" points="635,-459.5 781,-459.5"/>
<text text-anchor="start" x="683" y="-449.5" font-family="Helvetica,sans-Serif" font-size="10.00">★ Refs: 2</text>
<text text-anchor="start" x="689" y="-438.5" font-family="Helvetica,sans-Serif" font-size="10.00"> Index: 3</text>
</g>
<!-- R9_1 -->
<g id="node16" class="node">
<title>R9_1</title>
<polygon fill="skyblue" stroke="black" points="432.5,-346.5 432.5,-396.5 589.5,-396.5 589.5,-346.5 432.5,-346.5"/>
<text text-anchor="start" x="485.5" y="-387.5" font-family="Helvetica,sans-Serif" font-weight="bold" font-size="10.00">SceneHDR</text>
<text text-anchor="start" x="446.5" y="-377.5" font-family="Helvetica,sans-Serif" font-size="10.00">(4096, 4096) &#45; RGBA32F [2D]</text>
<polyline fill="none" stroke="black" points="432.5,-372.5 589.5,-372.5"/>
<text text-anchor="start" x="493.5" y="-362.5" font-family="Helvetica,sans-Serif" font-size="10.00">Index: 9</text>
<text text-anchor="start" x="494" y="-351.5" font-family="Helvetica,sans-Serif" font-size="10.00">Refs : 1</text>
</g>
<!-- P3&#45;&gt;R9_1 -->
<g id="edge5" class="edge">
<title>P3&#45;&gt;R9_1</title>
<path fill="none" stroke="orangered" d="M660.31,-433.51C636.19,-423.65 606.46,-411.51 579.9,-400.65"/>
<polygon fill="orangered" stroke="orangered" points="581.49,-397.52 570.91,-396.98 578.84,-404 581.49,-397.52"/>
</g>
<!-- R10_1 -->
<g id="node17" class="node">
<title>R10_1</title>
<polygon fill="skyblue" stroke="black" points="608,-346.5 608,-396.5 808,-396.5 808,-346.5 608,-346.5"/>
<text text-anchor="start" x="679" y="-387.5" font-family="Helvetica,sans-Serif" font-weight="bold" font-size="10.00">SceneDepth</text>
<text text-anchor="start" x="622" y="-377.5" font-family="Helvetica,sans-Serif" font-size="10.00">(4096, 4096) &#45; BGRA8_UNORM [Depth]</text>
<polyline fill="none" stroke="black" points="608,-372.5 808,-372.5"/>
<text text-anchor="start" x="688" y="-362.5" font-family="Helvetica,sans-Serif" font-size="10.00">Index: 10</text>
<text text-anchor="start" x="691" y="-351.5" font-family="Helvetica,sans-Serif" font-size="10.00">Refs : 1</text>
</g>
<!-- P3&#45;&gt;R10_1 -->
<g id="edge6" class="edge">
<title>P3&#45;&gt;R10_1</title>
<path fill="none" stroke="orangered" d="M708,-433.51C708,-425.75 708,-416.56 708,-407.71"/>
<polygon fill="orangered" stroke="orangered" points="711.5,-407.92 708,-397.92 704.5,-407.92 711.5,-407.92"/>
</g>
<!-- P4 -->
<g id="node5" class="node">
<title>P4</title>
<path fill="orange" stroke="black" d="M450,-268.5C450,-268.5 572,-268.5 572,-268.5 578,-268.5 584,-274.5 584,-280.5 584,-280.5 584,-297.5 584,-297.5 584,-303.5 578,-309.5 572,-309.5 572,-309.5 450,-309.5 450,-309.5 444,-309.5 438,-303.5 438,-297.5 438,-297.5 438,-280.5 438,-280.5 438,-274.5 444,-268.5 450,-268.5"/>
<text text-anchor="start" x="452" y="-300.5" font-family="Helvetica,sans-Serif" font-weight="bold" font-size="10.00">Pass.Builtin.Code.Debug</text>
<polyline fill="none" stroke="black" points="438,-294.5 584,-294.5"/>
<text text-anchor="start" x="486" y="-284.5" font-family="Helvetica,sans-Serif" font-size="10.00">★ Refs: 2</text>
<text text-anchor="start" x="492" y="-273.5" font-family="Helvetica,sans-Serif" font-size="10.00"> Index: 4</text>
</g>
<!-- R9_2 -->
<g id="node18" class="node">
<title>R9_2</title>
<polygon fill="skyblue" stroke="black" points="333.5,-181.5 333.5,-231.5 490.5,-231.5 490.5,-181.5 333.5,-181.5"/>
<text text-anchor="start" x="376.5" y="-222.5" font-family="Helvetica,sans-Serif" font-weight="bold" font-size="10.00">SceneHDR</text>
<text text-anchor="start" x="427.5" y="-222.5" font-family="Helvetica,sans-Serif" font-size="10.00"> &#160;&#160;</text>
<text text-anchor="start" x="437.5" y="-222.5" font-family="Helvetica,sans-Serif" font-size="10.00">v2</text>
<text text-anchor="start" x="347.5" y="-212.5" font-family="Helvetica,sans-Serif" font-size="10.00">(4096, 4096) &#45; RGBA32F [2D]</text>
<polyline fill="none" stroke="black" points="333.5,-207.5 490.5,-207.5"/>
<text text-anchor="start" x="394.5" y="-197.5" font-family="Helvetica,sans-Serif" font-size="10.00">Index: 9</text>
<text text-anchor="start" x="395" y="-186.5" font-family="Helvetica,sans-Serif" font-size="10.00">Refs : 1</text>
</g>
<!-- P4&#45;&gt;R9_2 -->
<g id="edge7" class="edge">
<title>P4&#45;&gt;R9_2</title>
<path fill="none" stroke="orangered" d="M487.03,-268.51C475.98,-259.53 462.59,-248.64 450.2,-238.56"/>
<polygon fill="orangered" stroke="orangered" points="452.54,-235.96 442.58,-232.36 448.13,-241.39 452.54,-235.96"/>
</g>
<!-- R10_2 -->
<g id="node19" class="node">
<title>R10_2</title>
<polygon fill="skyblue" stroke="black" points="509,-181.5 509,-231.5 709,-231.5 709,-181.5 509,-181.5"/>
<text text-anchor="start" x="570" y="-222.5" font-family="Helvetica,sans-Serif" font-weight="bold" font-size="10.00">SceneDepth</text>
<text text-anchor="start" x="628" y="-222.5" font-family="Helvetica,sans-Serif" font-size="10.00"> &#160;&#160;</text>
<text text-anchor="start" x="638" y="-222.5" font-family="Helvetica,sans-Serif" font-size="10.00">v2</text>
<text text-anchor="start" x="523" y="-212.5" font-family="Helvetica,sans-Serif" font-size="10.00">(4096, 4096) &#45; BGRA8_UNORM [Depth]</text>
<polyline fill="none" stroke="black" points="509,-207.5 709,-207.5"/>
<text text-anchor="start" x="589" y="-197.5" font-family="Helvetica,sans-Serif" font-size="10.00">Index: 10</text>
<text text-anchor="start" x="592" y="-186.5" font-family="Helvetica,sans-Serif" font-size="10.00">Refs : 1</text>
</g>
<!-- P4&#45;&gt;R10_2 -->
<g id="edge8" class="edge">
<title>P4&#45;&gt;R10_2</title>
<path fill="none" stroke="orangered" d="M534.72,-268.51C545.66,-259.53 558.92,-248.64 571.18,-238.56"/>
<polygon fill="orangered" stroke="orangered" points="573.22,-241.42 578.73,-232.37 568.78,-236.01 573.22,-241.42"/>
</g>
<!-- P5 -->
<g id="node6" class="node">
<title>P5</title>
<path fill="orange" stroke="black" d="M424,-103.5C424,-103.5 598,-103.5 598,-103.5 604,-103.5 610,-109.5 610,-115.5 610,-115.5 610,-132.5 610,-132.5 610,-138.5 604,-144.5 598,-144.5 598,-144.5 424,-144.5 424,-144.5 418,-144.5 412,-138.5 412,-132.5 412,-132.5 412,-115.5 412,-115.5 412,-109.5 418,-103.5 424,-103.5"/>
<text text-anchor="start" x="426" y="-135.5" font-family="Helvetica,sans-Serif" font-weight="bold" font-size="10.00">Pass.Builtin.Code.FinalComposition</text>
<polyline fill="none" stroke="black" points="412,-129.5 610,-129.5"/>
<text text-anchor="start" x="486" y="-119.5" font-family="Helvetica,sans-Serif" font-size="10.00">★ Refs: 2</text>
<text text-anchor="start" x="492" y="-108.5" font-family="Helvetica,sans-Serif" font-size="10.00"> Index: 5</text>
</g>
<!-- R11_1 -->
<g id="node20" class="node">
<title>R11_1</title>
<polygon fill="skyblue" stroke="black" points="329,-16.5 329,-66.5 495,-66.5 495,-16.5 329,-16.5"/>
<text text-anchor="start" x="377" y="-57.5" font-family="Helvetica,sans-Serif" font-weight="bold" font-size="10.00">Present Image</text>
<text text-anchor="start" x="343" y="-47.5" font-family="Helvetica,sans-Serif" font-size="10.00">(80, 10) &#45; BGRA8_UNORM [2D]</text>
<polyline fill="none" stroke="black" points="329,-42.5 495,-42.5"/>
<text text-anchor="start" x="392" y="-32.5" font-family="Helvetica,sans-Serif" font-size="10.00">Index: 11</text>
<text text-anchor="start" x="395" y="-21.5" font-family="Helvetica,sans-Serif" font-size="10.00">Refs : 0</text>
</g>
<!-- P5&#45;&gt;R11_1 -->
<g id="edge9" class="edge">
<title>P5&#45;&gt;R11_1</title>
<path fill="none" stroke="orangered" d="M487.03,-103.51C475.98,-94.53 462.59,-83.64 450.2,-73.56"/>
<polygon fill="orangered" stroke="orangered" points="452.54,-70.96 442.58,-67.36 448.13,-76.39 452.54,-70.96"/>
</g>
<!-- R12_1 -->
<g id="node21" class="node">
<title>R12_1</title>
<polygon fill="skyblue" stroke="black" points="513.5,-16.5 513.5,-66.5 692.5,-66.5 692.5,-16.5 513.5,-16.5"/>
<text text-anchor="start" x="569" y="-57.5" font-family="Helvetica,sans-Serif" font-weight="bold" font-size="10.00">Depth Texture</text>
<text text-anchor="start" x="527.5" y="-47.5" font-family="Helvetica,sans-Serif" font-size="10.00">(80, 10) &#45; BGRA8_UNORM [Depth]</text>
<polyline fill="none" stroke="black" points="513.5,-42.5 692.5,-42.5"/>
<text text-anchor="start" x="583" y="-32.5" font-family="Helvetica,sans-Serif" font-size="10.00">Index: 12</text>
<text text-anchor="start" x="586" y="-21.5" font-family="Helvetica,sans-Serif" font-size="10.00">Refs : 0</text>
</g>
<!-- P5&#45;&gt;R12_1 -->
<g id="edge10" class="edge">
<title>P5&#45;&gt;R12_1</title>
<path fill="none" stroke="orangered" d="M533.27,-103.51C543.44,-94.61 555.74,-83.85 567.16,-73.86"/>
<polygon fill="orangered" stroke="orangered" points="569.32,-76.62 574.54,-67.4 564.71,-71.36 569.32,-76.62"/>
</g>
<!-- R0_1 -->
<g id="node7" class="node">
<title>R0_1</title>
<polygon fill="lightsteelblue" stroke="black" points="967.5,-511.5 967.5,-561.5 1102.5,-561.5 1102.5,-511.5 967.5,-511.5"/>
<text text-anchor="start" x="1015.5" y="-552.5" font-family="Helvetica,sans-Serif" font-weight="bold" font-size="10.00">BrdfLUT</text>
<text text-anchor="start" x="981.5" y="-542.5" font-family="Helvetica,sans-Serif" font-size="10.00">(400, 400) &#45; RGBA8 [2D]</text>
<polyline fill="none" stroke="black" points="967.5,-537.5 1102.5,-537.5"/>
<text text-anchor="start" x="1017.5" y="-527.5" font-family="Helvetica,sans-Serif" font-size="10.00">Index: 0</text>
<text text-anchor="start" x="1018" y="-516.5" font-family="Helvetica,sans-Serif" font-size="10.00">Refs : 1</text>
</g>
<!-- R0_1&#45;&gt;P3 -->
<g id="edge11" class="edge">
<title>R0_1&#45;&gt;P3</title>
<path fill="none" stroke="#9acd32" d="M983.22,-511.61C975.21,-508.43 966.96,-505.43 959,-503 904.48,-486.34 841.46,-474.31 792.2,-466.46"/>
<polygon fill="#9acd32" stroke="#9acd32" points="792.87,-463.03 782.45,-464.94 791.79,-469.94 792.87,-463.03"/>
</g>
<!-- R1_1 -->
<g id="node8" class="node">
<title>R1_1</title>
<polygon fill="lightsteelblue" stroke="black" points="814.5,-511.5 814.5,-561.5 949.5,-561.5 949.5,-511.5 814.5,-511.5"/>
<text text-anchor="start" x="850" y="-552.5" font-family="Helvetica,sans-Serif" font-weight="bold" font-size="10.00">NoiseTexture</text>
<text text-anchor="start" x="828.5" y="-542.5" font-family="Helvetica,sans-Serif" font-size="10.00">(128, 128) &#45; RGBA8 [2D]</text>
<polyline fill="none" stroke="black" points="814.5,-537.5 949.5,-537.5"/>
<text text-anchor="start" x="864.5" y="-527.5" font-family="Helvetica,sans-Serif" font-size="10.00">Index: 1</text>
<text text-anchor="start" x="865" y="-516.5" font-family="Helvetica,sans-Serif" font-size="10.00">Refs : 0</text>
</g>
<!-- R2_1 -->
<g id="node9" class="node">
<title>R2_1</title>
<polygon fill="lightsteelblue" stroke="black" points="620,-511.5 620,-561.5 796,-561.5 796,-511.5 620,-511.5"/>
<text text-anchor="start" x="667.5" y="-552.5" font-family="Helvetica,sans-Serif" font-weight="bold" font-size="10.00">EnvironmentMap</text>
<text text-anchor="start" x="634" y="-542.5" font-family="Helvetica,sans-Serif" font-size="10.00">(512, 512) &#45; RGBA32F [CubeMap]</text>
<polyline fill="none" stroke="black" points="620,-537.5 796,-537.5"/>
<text text-anchor="start" x="690.5" y="-527.5" font-family="Helvetica,sans-Serif" font-size="10.00">Index: 2</text>
<text text-anchor="start" x="691" y="-516.5" font-family="Helvetica,sans-Serif" font-size="10.00">Refs : 1</text>
</g>
<!-- R2_1&#45;&gt;P3 -->
<g id="edge12" class="edge">
<title>R2_1&#45;&gt;P3</title>
<path fill="none" stroke="#9acd32" d="M708,-511.78C708,-503.62 708,-494.36 708,-485.72"/>
<polygon fill="#9acd32" stroke="#9acd32" points="711.5,-486 708,-476 704.5,-486 711.5,-486"/>
</g>
<!-- R3_1 -->
<g id="node10" class="node">
<title>R3_1</title>
<polygon fill="lightsteelblue" stroke="black" points="436.5,-511.5 436.5,-561.5 601.5,-561.5 601.5,-511.5 436.5,-511.5"/>
<text text-anchor="start" x="484" y="-552.5" font-family="Helvetica,sans-Serif" font-weight="bold" font-size="10.00">IrradianceMap</text>
<text text-anchor="start" x="450.5" y="-542.5" font-family="Helvetica,sans-Serif" font-size="10.00">(32, 32) &#45; RGBA32F [CubeMap]</text>
<polyline fill="none" stroke="black" points="436.5,-537.5 601.5,-537.5"/>
<text text-anchor="start" x="501.5" y="-527.5" font-family="Helvetica,sans-Serif" font-size="10.00">Index: 3</text>
<text text-anchor="start" x="502" y="-516.5" font-family="Helvetica,sans-Serif" font-size="10.00">Refs : 1</text>
</g>
<!-- R3_1&#45;&gt;P3 -->
<g id="edge13" class="edge">
<title>R3_1&#45;&gt;P3</title>
<path fill="none" stroke="#9acd32" d="M575.19,-511.57C599.46,-501.23 627.78,-489.17 652.02,-478.84"/>
<polygon fill="#9acd32" stroke="#9acd32" points="653.27,-482.12 661.1,-474.98 650.52,-475.68 653.27,-482.12"/>
</g>
<!-- R4_1 -->
<g id="node11" class="node">
<title>R4_1</title>
<polygon fill="lightsteelblue" stroke="black" points="242,-511.5 242,-561.5 418,-561.5 418,-511.5 242,-511.5"/>
<text text-anchor="start" x="293" y="-552.5" font-family="Helvetica,sans-Serif" font-weight="bold" font-size="10.00">PreFilteredMap</text>
<text text-anchor="start" x="256" y="-542.5" font-family="Helvetica,sans-Serif" font-size="10.00">(128, 128) &#45; RGBA32F [CubeMap]</text>
<polyline fill="none" stroke="black" points="242,-537.5 418,-537.5"/>
<text text-anchor="start" x="312.5" y="-527.5" font-family="Helvetica,sans-Serif" font-size="10.00">Index: 4</text>
<text text-anchor="start" x="313" y="-516.5" font-family="Helvetica,sans-Serif" font-size="10.00">Refs : 1</text>
</g>
<!-- R4_1&#45;&gt;P3 -->
<g id="edge14" class="edge">
<title>R4_1&#45;&gt;P3</title>
<path fill="none" stroke="#9acd32" d="M397.89,-511.53C407.91,-508.41 418.17,-505.46 428,-503 493.02,-486.74 567.91,-474.22 623.86,-466.05"/>
<polygon fill="#9acd32" stroke="#9acd32" points="624.25,-469.53 633.65,-464.64 623.26,-462.6 624.25,-469.53"/>
</g>
<!-- R5_1&#45;&gt;P3 -->
<g id="edge15" class="edge">
<title>R5_1&#45;&gt;P3</title>
<path fill="none" stroke="#9acd32" d="M208.73,-511.52C215.63,-508.18 222.88,-505.16 230,-503 301.44,-481.31 506.75,-466.48 623.74,-459.52"/>
<polygon fill="#9acd32" stroke="#9acd32" points="623.84,-463.02 633.62,-458.94 623.43,-456.04 623.84,-463.02"/>
</g>
<!-- R5_1&#45;&gt;P4 -->
<g id="edge16" class="edge">
<title>R5_1&#45;&gt;P4</title>
<path fill="none" stroke="#9acd32" d="M196,-511.56C240.7,-472.56 333.74,-394.03 420,-338 432.77,-329.7 447.13,-321.61 460.6,-314.5"/>
<polygon fill="#9acd32" stroke="#9acd32" points="462.08,-317.68 469.35,-309.97 458.86,-311.46 462.08,-317.68"/>
</g>
<!-- R6_1&#45;&gt;P3 -->
<g id="edge17" class="edge">
<title>R6_1&#45;&gt;P3</title>
<path fill="none" stroke="#9acd32" d="M1157.67,-515.11C1143.9,-510.55 1129.04,-506.14 1115,-503 1004.92,-478.35 875.09,-465.82 792.19,-459.85"/>
<polygon fill="#9acd32" stroke="#9acd32" points="792.54,-456.37 782.32,-459.16 792.05,-463.35 792.54,-456.37"/>
</g>
<!-- R7_1&#45;&gt;P3 -->
<g id="edge18" class="edge">
<title>R7_1&#45;&gt;P3</title>
<path fill="none" stroke="#9acd32" d="M1406.51,-511.53C1394.09,-508.22 1381.26,-505.2 1369,-503 1163.9,-466.22 918.2,-457.46 791.98,-455.48"/>
<polygon fill="#9acd32" stroke="#9acd32" points="792.07,-451.98 782.02,-455.33 791.97,-458.98 792.07,-451.98"/>
</g>
<!-- R8_1&#45;&gt;P3 -->
<g id="edge19" class="edge">
<title>R8_1&#45;&gt;P3</title>
<path fill="none" stroke="#9acd32" d="M1613.66,-511.57C1605.99,-508.14 1597.91,-505.07 1590,-503 1440.98,-464 982.68,-456.65 792.29,-455.29"/>
<polygon fill="#9acd32" stroke="#9acd32" points="792.5,-451.8 782.48,-455.23 792.45,-458.79 792.5,-451.8"/>
</g>
<!-- R9_1&#45;&gt;P4 -->
<g id="edge20" class="edge">
<title>R9_1&#45;&gt;P4</title>
<path fill="none" stroke="#9acd32" d="M511,-346.78C511,-338.62 511,-329.36 511,-320.72"/>
<polygon fill="#9acd32" stroke="#9acd32" points="514.5,-321 511,-311 507.5,-321 514.5,-321"/>
</g>
<!-- R10_1&#45;&gt;P4 -->
<g id="edge21" class="edge">
<title>R10_1&#45;&gt;P4</title>
<path fill="none" stroke="#9acd32" d="M649.43,-346.57C624.02,-336.18 594.35,-324.06 569.01,-313.7"/>
<polygon fill="#9acd32" stroke="#9acd32" points="570.42,-310.5 559.84,-309.96 567.77,-316.98 570.42,-310.5"/>
</g>
<!-- R9_2&#45;&gt;P5 -->
<g id="edge22" class="edge">
<title>R9_2&#45;&gt;P5</title>
<path fill="none" stroke="#9acd32" d="M441.44,-181.57C453.06,-172.11 466.47,-161.21 478.39,-151.52"/>
<polygon fill="#9acd32" stroke="#9acd32" points="480.44,-154.36 485.99,-145.34 476.02,-148.93 480.44,-154.36"/>
</g>
<!-- R10_2&#45;&gt;P5 -->
<g id="edge23" class="edge">
<title>R10_2&#45;&gt;P5</title>
<path fill="none" stroke="#9acd32" d="M579.86,-181.57C568.35,-172.11 555.08,-161.21 543.28,-151.52"/>
<polygon fill="#9acd32" stroke="#9acd32" points="545.72,-148.99 535.77,-145.34 541.27,-154.4 545.72,-148.99"/>
</g>
</g>
</svg>
