{
    "asset" : {
        "copyright" : "Khronos",
        "generator" : "Khronos glTF Blender I/O v1.7.33",
        "version" : "2.0"
    },
    "scene" : 0,
    "scenes" : [
        {
            "name" : "Scene",
            "nodes" : [
                0
            ]
        }
    ],
    "nodes" : [
        {
            "mesh" : 0,
            "name" : "Teapot_Node",
            "rotation" : [
                0.7071068286895752,
                0,
                0,
                0.7071067094802856
            ]
        }
    ],
    "meshes" : [
        {
            "name" : "Teapot",
            "primitives" : [
                {
                    "attributes" : {
                        "POSITION" : 0,
                        "NORMAL" : 1,
                        "TEXCOORD_0" : 2,
                        "COLOR_0" : 3
                    },
                    "indices" : 4
                }
            ]
        }
    ],
    "accessors" : [
        {
            "bufferView" : 0,
            "componentType" : 5126,
            "count" : 5473,
            "max" : [
                1.6894861459732056,
                0.9839635491371155,
                0
            ],
            "min" : [
                -1.4759453535079956,
                -0.9839635491371155,
                -1.549742579460144
            ],
            "type" : "VEC3"
        },
        {
            "bufferView" : 1,
            "componentType" : 5126,
            "count" : 5473,
            "type" : "VEC3"
        },
        {
            "bufferView" : 2,
            "componentType" : 5126,
            "count" : 5473,
            "type" : "VEC2"
        },
        {
            "bufferView" : 3,
            "componentType" : 5123,
            "count" : 5473,
            "normalized" : true,
            "type" : "VEC4"
        },
        {
            "bufferView" : 4,
            "componentType" : 5123,
            "count" : 27360,
            "type" : "SCALAR"
        }
    ],
    "bufferViews" : [
        {
            "buffer" : 0,
            "byteLength" : 65676,
            "byteOffset" : 0
        },
        {
            "buffer" : 0,
            "byteLength" : 65676,
            "byteOffset" : 65676
        },
        {
            "buffer" : 0,
            "byteLength" : 43784,
            "byteOffset" : 131352
        },
        {
            "buffer" : 0,
            "byteLength" : 43784,
            "byteOffset" : 175136
        },
        {
            "buffer" : 0,
            "byteLength" : 54720,
            "byteOffset" : 218920
        }
    ],
    "buffers" : [
        {
            "byteLength" : 273640,
            "uri" : "data:application/octet-stream;base64,"
        }
    ]
}
